<?xml version="1.0" encoding="utf-8"?>
<!-- Generator: Adobe Illustrator 18.0.0, SVG Export Plug-In . SVG Version: 6.00 Build 0)  -->
<!DOCTYPE svg PUBLIC "-//W3C//DTD SVG 1.1//EN" "http://www.w3.org/Graphics/SVG/1.1/DTD/svg11.dtd">
<svg version="1.1" id="Layer_1" xmlns="http://www.w3.org/2000/svg" xmlns:xlink="http://www.w3.org/1999/xlink" x="0px" y="0px"
	 viewBox="7.4 170.8 598.1 450" enable-background="new 7.4 170.8 598.1 450" xml:space="preserve">
<g id="Layer_1_1_">
	
		<image overflow="visible" enable-background="new    " width="601" height="451" xlink:href="E7B62338106EA713.jpeg"  transform="matrix(0.9983 0 0 0.9978 5.5625 170.75)">
	</image>
	<path fill="#502C1B" d="M373.8,486.9l0.5-0.8c0,0,0.2-1,0.2-1.1s1.1-0.2,1.2-0.4s0.8-0.6,0.8-0.6s-1.4-0.3-1.5-0.3
		s-1.1-0.1-1.1-0.6s-0.2-1.8-0.3-2.1s0.1-1.3,0-1.6s-0.3-1.9-0.3-1.9l-0.3-0.3l-0.2-1.2l-0.9-0.4l-1.2-0.3c0,0-0.4-0.3-0.6,0
		s-0.5,1-0.5,1s0.8,1.5,0.9,1.7s0.8,1.5,0.8,1.7s0.3,1.1,0.4,1.2s0.6,0.8,0.6,0.8l0.5,0.8c0,0,0.5,0.7,0.5,0.8s0,1.2,0,1.2l-0.1,1.2
		l0.1,1.1L373.8,486.9z"/>
	<path fill="#1E0D04" d="M373.3,487.5l0.1-0.1l0.6-0.9l1.8-1.4c0,0,1.6-0.8,1.7-0.8s1.2,0.9,1.2,1.2s1.2,2.2,1.3,2.4
		c0.1,0.2,1.4,2.1,1.5,2.3c0.1,0.2,0.5,1.4,0.8,1.7s3.9,4,3.9,4l0.7,1.7l-0.5,0.2c0,0-1.8-1.4-2-1.6s-2-2.1-2-2.1s-1.6-0.7-2.3-0.8
		s-2.9,0-2.9,0l-4.1,1.1l1.4,1.6l-0.8,1.1l-0.2-3.9c0,0,0.2-3.1-0.1-3.1s-0.2-1.5-0.2-1.5l-0.1-0.6L373.3,487.5"/>
</g>
<g id="trace">
	<polygon fill="#CABEB6" points="5.2,461.3 65.4,456.4 107.2,466.7 170.3,500.5 192.3,514 234.9,543.4 245.9,554.8 275.4,559.3 
		346,549.8 365.8,548.3 388.5,539.6 409.6,522.2 463.5,511 496.4,516.6 561.3,526.1 588.7,526.1 600.3,527 605.6,531 605.6,620.8 
		5.6,620.8 	"/>
	<path fill="#483631" d="M338,620.8l42-18.1l12.1-2.7h17.4l19-7l24.3-16.3l25.7-6.3l17.8-11l18-6.5c0,0,10.7,0.2,12.9,0
		s6.9-3.1,6.9-3.1l-2.1-10.5l6.3-2.3l13.5,6.4l4-2.1l-20.7-9.9c0,0-13.4-3.8-20.6-1.6c-7.2,2.2-41.2-2.1-46.2-2.9
		s-26.1-10.2-26.1-10.2l163.4-2v106.1H338z"/>
	<polygon fill="#572C19" points="605.6,419.8 144.6,363.8 5.2,359 144.6,254 110.5,200.1 171.5,182 211,170.8 605.6,170.8 	"/>
	<path fill="#3E170B" d="M605.6,225.5c0,0-6.8,2-9.6,3s-12,2.8-14.2,4s-5,3.5-5,3.5s-4.5,0-3,1.2s5.5,3,5.5,3l5.8,2.5c0,0,0.2,4-2,4
		s-2.5-1-7.2,0s-2.5,2.2-8.5,1.5s-11.8-1.8-13.2-2.2s0.8-3-5.5-3s-5.8-0.2-9.5,0.2s-5.2,0.8-7.8,2s-9.8,3.8-12,4.2s-3.5,0.5-8,1.8
		s1,0.8-11,2.5s-14.8,2.2-20,2.2s-8.5,1.5-12.8,0s-14.8-5-14.8-5s-5.5-1-6.8-0.8s0,2.2,0,2.2l-4.2-0.8l-6-2.5l-19.5-6.5
		c0,0-16.5-3.2-17.2-3.2s-12-0.2-13.2-0.5s-9.5-2.8-9.5-2.8s-7.2-0.5-8.8-1.5s-12.8-2.2-14.5-2.2s-15.5,0.5-15.5,0.5l-18.2,4.2
		c0,0-27.5,3.9-28.7,3.8c-1.2-0.1-16.2,3.7-20.6,4.9c-4.3,1.2-16,3.8-18.7,5c-2.7,1.2-14.4,6.2-14.4,6.2l-20.8,6.7l-7.2,3.4
		L76.1,359l-17.2,1.6L5.2,359l0.4-188.2h162.3h89.6h9.2l-14.8,3.8l-17.8,6l-99,21l-8.2,6.8c0,0,23.8-2.2,29.5-3.8s37-5.2,38.2-6.2
		S229,188,229,188s11-2.8,12-3s25.5-8.5,25.5-8.5l17.5-5.8h12.5c0,0-14,6.5-15,7s-94.5,29-99.5,31.8s-14.5,8-14.5,8l-7.8,3.8
		l9.2-0.2l10-1.8l-6.5,4.5c0,0-6.8,5-7.5,6s-1.2,3.5,1,3.5s12-0.2,13.5-0.8s12.2-3,14.2-3.5s10-2.2,10-2.2l2.2-3.8
		c0,0-4.8-2-7.8-2.2s-6.8-0.5-7.8-1s0.2-5,3.8-5.2s6.2,0,7-0.2s8.5-4.5,10.5-5.5s68.8-18.2,68.8-18.2l33-6.2l19.5-4.8l16.5-1.8
		l9.8-0.8l9-2l10.2-2l-11.2-2.2h62.5h175.8c0,0-197.3,2-223.1,7.2l-17.5,3c0,0-17.8,2-19,2s-21.8,3.5-22.5,3.8s-23.8,3.2-25,3.8
		S206.8,217,206.8,217l0.2,3.8c0,0,3.2,2.8,2.5,3.5s7.8-1.8,10.2-2.8s18.8-4.8,18.8-4.8l43.3-11L325,197l57.5-7l14.5-2.2h9l15.8,0.8
		l18.2-3.8c0,0,8,0.2,8.8,0.2s14.5,1.2,15.5,1.2s26.2-1,26.2-1s112.1-5.2,115.1-4.5v4.8c0,0-112.8,4.2-115.1,4.8s-54-0.2-54-0.2
		l-18.8,2.5l-22.5,0.8c0,0-13,0.2-14,0.2s-141,17.2-172.2,38.8l4.5,2.8l20.2-4.2L266,224l54.2-10.2l20.2-4.5l34-4.5L398,202l28.8-1
		H440c0,0,161.4-6,165.6-3.2v3c0,0-97.8-2.2-113.1,2l-51.8,3.2l-15.8,0.8l-7.5-0.5h-9.8l-11,6l-8.5,2.2l-4-4.8l-14.2,0.5
		c0,0-20.2,3.5-21.2,3.8s-23.2,4-23.2,4l-14.2,3.2c0,0-73.7,8.8-89.1,20l-3.9,5v1.8l5.8,2.5l8.2-1.2c0,0,6.3-4,8.8-4.8
		s10.6-2,10.4-2.8c-0.2-0.8,10.2-5,10.7-5s18.7-3.2,19.7-3.2s17.9-2.5,23.8-2.8s14.4-2.8,15.2-3s21.5-3.8,24.5-3.8s17.2-1,18-1
		s11.5,2.2,13.8,3.2s13.5,1.5,15,1.5s25.5-1,25.5-1s15.8-3,17-2.2s17.8,4.2,21,4.5s12.2,4,15.6,4.5s9.1,2.8,12.6,2.8
		s19.8-2.2,19.8-2.2l15.2-3.5l6-8l10.5-4.8l21-1.2l16.2,2l13.5,1.8l16.2,0.8h3.3L605.6,225.5L605.6,225.5z"/>
	<path fill="#837F7C" d="M5.2,442l46.2-20.2l27.1-58l-2.4-4.8l-5.1,3.5h-7h-2l-5.9-3.5l-6.4-4.1c0,0,0.6-1-1.8-1.6s-3.9,0.9-4.6,0
		c-0.7-0.9-1.5,0-1.5,0l-4.5,5.7c-2,0.7-3.6-0.7-6.3,0s-3.7-1.4-5.7,0s-6.8,2-6.8,2s0.5-1.4-3-2s-3,1.3-5.1,0s-2.1-1.3-2.1-1.3
		L5.2,359L5.2,442L5.2,442z"/>
	<polygon fill="#948A84" points="557.8,470.6 569.8,475.1 605.6,478.9 605.6,419.8 603.3,420.2 602,418.6 600.3,416 596.7,416.4 
		593.7,417.1 588.3,416.4 584.3,414.3 574.7,440.5 558.4,465 	"/>
	<path fill="#0A0605" d="M376,620.8l10.9-7.1h13l15.2,3.5c0,0,13.6-5.2,15.3-6.9s8.8-9.7,8.8-9.7l-7.3-7.7H415c0,0-0.7-8,1-8.7
		c1.7-0.7,15.8-4.7,15.8-4.7l13.3,4c0,0,4.6,7.3,8.6,6.3s19.7-4,19.7-4l13.3-6.3l13.7,3.3l14.2-10.7l11.8-8.3l15.3,3.3l19-8.7h14
		c0,0,12.7-1.7,13-2.7s9.7-10.3,9.7-10.3l8.2,1.3v-14H602l-6.3-3.2H590l-6,7.2l-19.3,2.6l-18.8-6l-7.6,3.3l-7.4-2v-5.2l-10.8-1.1
		l-5.6,1.1l-14.2-5.5c0,0-8.2-2.1-10.1-1.4s-13.3-0.1-13.3-0.1s-13.7-2.5-13.5-2.8s-9.1,0.5-9.1,0.5l-3.3,2.4l-6-2.4l-5.9,2.5
		l-9.1,4l-3.7-4c0,0-25.8,8.4-27.5,10.7s-2.7,10.7-2.7,10.7L369.5,557l-9,5.7l-13.5-0.3l-9-3c0,0-5,2.7-7,3c-2,0.3-9.7,3.3-9.9,3.3
		s-8.6,1.7-10.9,1.7s-9-0.7-9-0.7l-8.1,0.3c0,0-1.1-2-3.1-2.7s-8.5,0-8.5,0l-4.7,1l-9.2,0.3l-3.2-0.7l5.5-2.3h-8.1l-3.4,0.3
		l-4.9,0.7h-7.4l-8.7,3.7l-2.2,3l-7.5-5l13.2-16.1l64.9-4.8l68.7-29.8l75.2-19.1l39.8-14.6l65.3-13.2l7.5-1.8l8.7,2l10.4,1.3h7.8
		l5.7,2.7l6,2.5l3-3.5l1.9-0.4v150.1H376z"/>
	<path fill="#19110D" d="M48,417.6c0,0,14.7-37.9,18-41.7s10.1-12.5,10.1-12.5l6.2-8.5l9.6-16.8l7.9-9.2l1.1-1.3l2.7,2l7.3-4l6.2-8
		c0,0,25.2-26,28.2-26.7s5-2.5,5-2.5l2.7-3.6v-1.1l3.7-2.9c0,0,40-13.5,49-13.5s20.7-0.1,20.7-0.1l12.9-0.8l6-1.2l24.8-6
		c0,0,57.9,4.7,64.2,7.2s20.3,4.5,20.3,4.5l3.7,1.6l-3.7,1.4l-3.3,2.4l4.7,7.4c0,0,7.4,8.2,8.9,8.9s9.8,5.5,9.8,5.5l8.3-3.2l6.4,1.8
		l9.2,4.9h7h4.1h1.9v-6.7l7.3,3.7c0,0,27.8,21.4,30.2,27.1s9.1,12.5,9.1,12.5l10,6.9l2.8,4.9l-5.9,13.8l-38.8,42.1l-19.7,40.2
		c0,0-7.4,16.2-12.1,17.5c-4.7,1.3-73.5,12.5-73.5,12.5s-80.8,19.1-86.3,20.6s-45.9-2.8-52.2-4.7c-6.3-1.9-68.6-19.5-68.6-19.5
		L61.1,449l-9.6-7.7L46.7,430L48,417.6z"/>
	<path fill="#611C00" d="M364.3,272.8h-5l-7.9,3.6l1.9,3c0,0,3,6.5,3.8,7.3c0.8,0.8,10.8,6.6,10.8,6.6s4.3,2.8,4.9,2.8
		s7.5-2.1,7.5-2.1l4.5-0.6c0,0,7.5,4.1,8,4.2s5,2.8,6,3.1s10-0.6,10-0.6s3-0.1,3-0.6s0-6,0-6l-6-4.5L364.3,272.8z"/>
	<path fill="#6C3D02" d="M100,327.6c0,0,9.5-17.6,16.8-22.9s19.8-15.3,21.4-16.2c1.7-1,8.2-5.5,13.2-4.7l1.6,1.1l-2.4,3.2
		c0,0-1.9,1.7-3,2.1c-1.1,0.5-14.8,11.7-14.8,11.7l-10.3,10.2l-8.9,10.1l-3.7,4C110,326.2,105,329.5,100,327.6z"/>
	<path fill="#825C0A" d="M78.5,456.4c0,0,8.8,4.8,10.2,4.4c1.3-0.4,14.2,3.5,14.2,3.5l2.5,1.2l-2.5-6c0,0-1.3-10.3-1.4-11.8
		s1-35.3,1-35.3l-0.7-2.2l-2-2.9l-5.9-3.3l-6.8-1.7l-1.1,2.6L82,437.1l-1.2,5.8l-1.8,2.8L78.5,456.4z"/>
	<path fill="#B4821C" d="M167.7,477.7l12.8,7.9l39-3l15.4-11.6l-15.4-9.1l-7.8-35.9L184,410.2l-4.4,0.8l-0.1,3.5l-1,4.8l-2.7,9.1
		c0,0-11.5,34.1-10.8,44.1C165.7,482.3,167.7,477.7,167.7,477.7z"/>
	<path fill="#9E7B25" d="M112.7,465.5c0,0,16.4,4.9,17.9,5c1.5,0.2,15.9,4.5,15.9,4.5h9.6c0,0,2,0.6,1.2-1.3
		c-0.8-1.9-1.2-1.1-3.3-4.4c-2.2-3.3-4.8-8.6-4.8-8.6l-1.3-6.7l-3.4-3.1l1.1-13.5l2.3-21.3l-8.8-8.9l-18.4,3.7
		C120.5,411,112.3,460,112.7,465.5z"/>
	<path fill="#571F0A" d="M193.8,398.6v2.4c0,0-2.2,4.9-2.6,4.6s-3.2,2.2-3.2,2.2l1.9,1.9l7.5,0.6l2.9-1.9c0,0,2.8,1,2.6,1.2
		s4.4,0.6,4.4,0.6l1.6-1.9l4.8,1.9l5.5,3.4l-0.8,5l3.1,3.1l1.8,9.4l6.2,10c0,0,0,1.9-1.4,2.9s-10.6,18.6-10.6,18.6l2.1,4.7l5.4,2.4
		l-1.8,0.8h-8c0,0-1.5-3.9-1.6-4.2s-0.5-8.5-1.2-8.6s-0.9-2.5-0.9-5s-1-7.9-0.9-10.4s0.5-8.7,0.5-8.7l-2.2-3.4l-4.1-4.1l-6.9-2.1
		l-10.1-2.2l-5.9-1.9c0,0-2.8-1.2-3.2-0.6s-3.1,5.7-3.1,4.7s2.5-7.4,2.5-7.4l1.6-2c0,0,1.1-0.5,1.6-1.3c0.5-0.8,0-2.1,0-2.1
		s-1.1-0.5-1.5,0s-2.2-1.4-2.2-1.4s1.5-2.6,1.1-3.1s1.6-2.4,1.6-2.4s-1.2-2.1-1.6-2.6s0-4.7,0-4.7l10.2-2.9l5.1,1.9L193.8,398.6z"/>
	<path fill="#927428" d="M219.5,482.1l-64.8-1.1l-7.8-7l-8.6-1.6h-17l-2.5,6l7.4,8.3l12.7,9.2c0,0,42.3,18.2,56.6,18.8l18.7-16.1
		l4-7L219.5,482.1z"/>
	<path fill="#7A5320" d="M167.7,492.8h3.2c0,0,1.8-1.1,2.1-1.8s1-3.1,1-3.1s-0.4-1.4-0.5-1.9s-6.8-7.7-6.8-7.7l-2.5-2.2l-2.3,2.9
		c0,0,0.8,2.4,1.3,2.7c0.5,0.3,4.7,6.2,4.7,6.2L167.7,492.8z"/>
	<path fill="#7A6128" d="M190.9,492.8c0,0-0.1-0.1-0.2-0.2c-0.5-0.4-1.7-1.3-1.9-1.4c-0.2-0.1-3.2-0.9-3.2-0.9l-5.1-1.1l0.6-0.6h4.7
		c0,0,3.7,0.2,3.8,0s0.5-0.9,0.8-1.1c0.3-0.2,16.2-1.1,16.2-1.1l5.8,1.4l0.6,2.1c0,0-3.8,1.2-5.1,1.7c-1.2,0.5-6.9,0.3-8.4,0
		s-6.8-0.4-6.8-0.4l-2.3,0.9L190.9,492.8z"/>
	<path fill="#78685C" d="M126.5,489.2l-1.8-3.8l-2.2-0.9v-6.2l4-2.6l4,1.5h2.8l-0.7-1.5l-4.7-1.5c0,0-3.9-3-4.2-3.2
		c-0.3-0.2-5.8-3-5.8-3l-5.2-2.6h-7.3l-2.5,1.2c0,0-1.2,2.7-1.9,2.6c-0.8,0-25.1-13.7-25.1-13.7h-1.6l-4.4,0.7l-2.2-0.7h-2l6.8,0.7
		l4.3,1.8l3.9,2.7C80.8,460.8,119.3,487,126.5,489.2z"/>
	<path fill="#19130F" d="M46.5,420.4h-4.4l-2.8,1.8l-1.5,2.1l-6.9,2l-2.1,2.2l-1.8,2.4c0,0-1.2-0.2-2.9,0s-8.1,1.5-8.1,1.5l-3,2.7
		l-6.5,3.3l-0.8,6.1v16.8l3.4,4.9l1.5,0l15.4,1.5l9.3-3.1h13l3.5-8.1c0,0,1.9-1.9,2.1-2.6s2-4.7,2-4.7l-1.1-6.2l-3.5-1.6l-2.8-1.3
		l-3.1-6.4v-1.4L46.5,420.4z"/>
	<path fill="#69496B" d="M12.3,457.2l0.9,1.6l1.3,0.5h1v1.9l1.1,1.7l5.9-2.8l-1.1-3.7l-0.8-1.4l2.3,0.8l-1.8-7.3l-3.6-0.7
		c0,0,0.8,2.4,0.8,2.6s0.6,3.4,0.6,3.4l-1.3-1l-2.2-0.7l-1.1,0.7l-0.6,1.8L12.3,457.2z"/>
	<path fill="#875504" d="M170,317.7l7.2-6.3l5.3-6.6l7.4-7.2l7.2-6.8l7.5-5.2l4.3-3.8v-4.2l-8.2-3.6l-3.7,0.7l-7.7,1.4l-7.8,2.7
		l-9.7,4.9c0,0-26,17.1-37.2,32.9l-0.8,5.2l3,1.2c0,0,15.7,0.3,21,0L170,317.7z"/>
	<path fill="#070607" d="M234.9,483.3l1.5,3.2L338,456.8l27.9,16.7l2.4,29l-5.9,18l6.7,2.4c0,0,5.5-5.7,6.2-11.4s1.8-26.8,1.2-27.8
		s-7.4-23.8-7.4-23.8l-18.1-15.1l-22.7-2.5c0,0-8.2,9.8-10.2,10.6S234.9,483.3,234.9,483.3z"/>
	<path fill="#753E15" d="M304.6,394.8c0,0,15.8,1.9,16.6,0.9s13.7-2.1,13.7-2.1s6.6-10.3,7.1-11.3s6-15.5,6.1-16.6s1.4-8.4,1.8-9
		s-11.6-6-11.9-6.1s-12.6,6.5-16.4,9s-17.4,7.4-25.6,9.8s-22,6.5-22,6.5s-13.2,5.8-11.8,8.2s3.8,5,6.9,6.3
		c3.1,1.3,24.2,2.7,25.1,2.7S304.6,394.8,304.6,394.8z"/>
	<path fill="#15100D" d="M316.8,389.8l8.4-2.8v-5.6c0,0-2.6-2.8-2.5-3.2s8.6-7.3,8.6-7.3l10.1-4.5l7.2-7.4l4.2,3.5
		c0,0,14.3,6.5,20.1,10s16.5,7.1,18.8,8.2s3.7,10.4,7,11.8s10.1-1,10.9,0c0.8,1-0.1,11.3-1.8,11.6s-7.3,1.8-8.1,1.6s-18-3-21.9-4.1
		s-24-11.1-27.1-11.2c-3.1-0.1-20.8-3.8-23.5-2.6S316.8,389.8,316.8,389.8z"/>
	<path fill="#241915" d="M210,483.1l3-1.5l8.2-1.1l6-3.4l2.2-3.3l-4.1-3.1l-7.6-2.7c0,0-3.2-7.4-3.2-7.8s1.9-12.2,2.2-12.8
		s-0.1-3.6,3-4.2s8.4-2.7,8.4-2.7s-3-1.3-4-1.3s-6.4,0.5-6.4,0.5l0.8-6.2l1.2-6.2c0,0-0.3-4.9,0-5.5s0-3.5,0-3.5l1.9-4.9l1.5-3.1
		l1.6-5.2l1.8-4l5.2-6.2l6.4-5l3.4-2.5l36.1-0.8l13.8-2.4l2.5-4.9c0,0,5-2.6,5.5-2.5s6.6,5.6,6.6,5.6s-1,3.1-1.2,3.5
		s0.8,4.6,0.8,4.6l3.4,3.2l10.5,15.2l1.7,12.3l16.8,20.1l-3,3.5l-6.5,3.7l-5.2,4.1l-15.1,7.5l-74,24.3h-7.9L210,483.1z"/>
	<path fill="#522916" d="M246.4,477.1c-0.4-0.1-7.8-6-7-6.6c0.8-0.6-2.2-6.2-2.2-6.2l0.9-4.2h4.2l-0.5-5.9l2.6-11.4l2-9.1l1.1-7
		v-4.2l3.6-2l1.9-2l4.5-4.6l6.8-0.3h8.1l4.5-1v-2.5l3.8-5.8c0,0,1.5,1.9,1.6,2.3s1.2,5.5,1.2,5.5s1.1,1.9,1.5,1.5s1.9-2.4,2.1-1.5
		s0.9,5.3,0.9,5.6s1.8,10.6,2,11s3.4,9.1,3.4,9.1l6,2.1c0,0,4.1,1.3,4.6,0.8c0.5-0.5,2,0.9,2,0.9s-0.5,5-0.4,5.1
		c0.1,0.1,0.4,1.9,0.4,1.9h6.1l4.6,0.5l1.2,2.3c0,0,0,2.5,0,2.8s-1.2,1.3-1.2,1.3l-2.2,1.7L246.4,477.1z"/>
	<path fill="#DFBA69" d="M245.2,475.1l3.6,3.2h4.6l8.1-1.3l8.1-2.5l10.1-3.5l7.7-3l11.6-3l6.9-4l5.2-2.1l4.2-2.4l1.2-2.4l-1.9-1.3
		l-4.6-1.5H308l-2,1.5l-1.3-0.2l-2.4,1.4l-1,1.9h-2.2l-2.3-1.9l-3.6-1.3l-0.9,1.3H288l-2.5-1.3v-4.3l-2-4.4l-3.7-15.1l-3.1-3.5
		c0,0-2.4-0.5-2.8-1.2s-8.4,0-8.4,0l-3.9,1.9h-3.4l-1,4.2c0,0-1.4,2.8-0.7,4.1c0.7,1.4-1.2,4.5-1.2,4.5l-5.4,15.1l-3.5,13l-1.2,1
		l-4-5l-1.9,1v4l1.3,3L245.2,475.1z"/>
	<path fill="#2C2518" d="M325,362.5l11-5l3.9-3.5l5.6-4.7l-4.2-6.4c0,0-4.2-7.8-6-6.6s-12.5,3.8-15.7,5.4c-3.2,1.6-9.9,6.2-10,7.7
		c0,1.4,8.2,5.6,9,6.9S325,362.5,325,362.5z"/>
	<polygon fill="#BBA357" points="465.2,363.6 467.1,360.1 468.2,356.7 468.9,355.3 474.1,355.3 475.4,359.1 478.5,361 482.3,363.6 
		483,365.5 481,367.6 465.2,365.5 	"/>
	<path fill="#501D08" d="M340.2,445.9l-4.2-2.8l-8.8-1l-6.1-5l-3.6-3.2l1.9-5.7c0,0,0.5-3.2,0.5-4.1s-2-7.8-2.4-9.1
		c-0.4-1.3-2.1-11.6-2.1-11.6l-2.9-4.7l-1.4-4.7l9.9-2.5l6.3,0.6c0,0,8.5-3,8.5-3.4s7.8-5.2,8.6-5.3s8.9-2.6,8.9-2.6l7.8,5
		c0,0,6.3,5.9,6.9,5.7c0.6-0.2,6.6,3.4,6.6,3.4l5.3,5.6l6.9,2.2l5.2-1.1l7.8,1.1l4.9,2.3L387,421.6l-32.1,18.9L340.2,445.9z"/>
	<path fill="#74340F" d="M325.7,421.2l-2.8-5l-0.6-4.4l-0.7-1.9l-1.1-2.2c0,0-0.1-2.2,0-2.4s0.2-2.5,0.2-2.5l-1.1-1.5l-2.1-2.2
		l-2.1-1.9l2.1-0.6l3.6,1.4l2.6,0.6l2.9-0.6l2.6-0.8l2.9-1.2l2.6-2.2l4.1-1.8l4.7-2.3l7.9-2.7l2.2,0.7l2.7,0.8l2.6,0.6l3.2,2.3
		c0,0,1.1,1.3,1.2,1.5s1.6,1.6,1.6,1.6l-7.4-1.1c0,0-7.6,0-8.7,0.4s-5.8,2.8-6,3.6s-3.7,3.5-5.2,3.8s-6.4,1.9-7.8,2.4
		s-4.9,4.2-5.6,5S325.7,421.2,325.7,421.2z"/>
	<path fill="#443735" d="M366.1,522.9l5,2l7.9,1.1c0,0,5,0.8,7.8,1s15.9-2.6,15.9-2.6s11.4-3.4,11.9-3.9s18.5-7.8,18.5-7.8l18-9.9
		l6-4l4-2.8l3.2,1.7c0,0,2.1-1.2,2-1.7c-0.1-0.4,3.6-1.6,3.6-1.3s3,0.2,5.9,0s16.4-1.3,16.4-1.3l13.1-3.6l6.6-2.2l7.6-1
		c0,0,6.6-1,7.2-1s6.6-1,6.6-1l12.5-4.9l6.6-4.5l5.2-4.5l3.8-3.5l2.5-4.8l2.2-3.2l2.6-3.1l1.4-1.7l3.4-3l1-5.5l2.2-4.8l2.9-8.1
		l1.4-7.1l1.3-5.9l1.2-2l1.6-4.9l0.5-5.1l-1.4-5.4l0.8-1.4v-2.7l0.5-4.7l-0.5-2.2l-2.6-4.3l-2.5-5l-4.2-4.7l-4-1.6h-2.8l-2.3-0.7
		l-2.6,0.7l-3.8-0.7l-3.5-1.4l-5.8-1.1l-2.4-1.1l-6.4-1.5l-4.3-0.5l-1.1-2.1l-2.4-1.2l-4.1-2.5h-4.8h-4.2l-2.6,1.2h-2.4h-4.8
		l-1.9-0.5l-1.9,0.5l-10.6-0.7l-3.3-0.5h-3.9l-6.1,1.2l-1.9,1l-4.3-0.5l-7.2-0.5l-5.5-1.2l-6.4-1.1H454l-2.2,1.1l-0.5,0.9l-0.9,1.2
		l-1.6,1l-4.9,3.8l-3.1,2l-3.3,2.6l-1.9,3.1l-2,3.1l-1.8,2.6l-2.2,3.8l-1.2,1.7l-2.5,1.9l-3.1,1.2l-2.2,1.4h-2.2l-1.8,2v2.7l-0.4,3
		l-1.6,2.6l-0.8,3.1l-3,3.2l-2.9,3l-3.4,4.6l-3.9,6l-1,4.6l-0.2,7l-0.8,2.1l-0.3,6.1L397,448l-2.6,1.7l-3.5,3.8l-5.4,4.7l-4.5,2.5
		l-4,1.7l-1.9-0.6l-1.9-1.9l-1-1.6l1.1,3l0.5,2l-0.6,3.4l-2,1.5l-1.5,2.9l-0.6,2.9l-0.9,1.1l0.1,3.2l1.4,3.1l1.8,2.8l1.2,2.2
		l0.5,4.4v4.4v3.9v4.4l-2,2.3l-1.5,2l-0.6,3.2l-0.8,3.1l-1.1,3.9l-1,2.6l-1.2,1.6L366.1,522.9z"/>
	<path fill="#CEA244" d="M413.4,394.1l6.4-1.2l6.6-2.5l2.8-3.5l3.2-5.5l4.1-6.2l4.3-3.7l5.5-4.8l4-3v-3.5l4.4-3.2v-4.1l-0.7-3.5
		l-2.4-2.8l-15.8-2.6l-24.6-1c0,0-12.6,5.5-12.8,5.9s-8.5,13.7-8.6,14.6s-0.6,9.2-0.6,9.2l6.5,7.7l4.5,7.8l4.4,4"/>
	<path fill="#1B0C0C" d="M413.4,394l-4.4-0.8l-6.1-1.6v-2.4h3.1l-26.5-23.5l15.7-19.2l22-3.4l23.4,2.2l3.5,2l3.5,0.5l2.9-0.4
		l3.1,0.4l-5.5-9l-5.5-5.9c0,0-17.4-16.6-60.6-8.5l-8.9,1.6l-2.8,1.4l-6.5,3.4l-13.6,12.4l-4.8,5.8l-1.9,2.8l2,3.6l3,3.3
		c0,0,30.4,27.8,43.1,34.9l7.8,1.9L413.4,394z"/>
	<path fill="#451608" d="M400.8,390.4h-4.4l-3.1-3.3l-6-1.4l6.8-1.6c0,0-4.2-4.2-4.6-4.4s-8.1-4.4-8.1-4.4s-6.6-6.2-6.6-6.7
		c0-0.5-2.4-5.2-2.4-5.2l-5.5-1l-0.6-3.5l2-2.7l3.8,2l2.5-3c0,0-0.4-3-0.6-3.7c-0.2-0.7-1.6-4.6-1.6-4.6s0.6-1.9,1.1-2.5
		s6.6,1.9,6.6,1.9l2.4,3.8l3.6,0.2l1.6,0.5l3.6-3.2l-0.2-3.2h-6.8l0.8-8.1c0,0,6.3,0,6.3,0s2.2,4.8,2.2,4.8l2.9,0.5h6.1l18.6-0.5
		l4.1,0.5l6.7,0.7l12.2,0.6l1.4,2.4l3.9-1l2.2,2.1l1.1,1.4l-2.3-0.3l-4.9,0.1l-4.9-2.2l-22.2-2.1l-23.2,3.3l-7.9,9.6l-5.6,11.6l9,8
		l6.7,6.3l6.1,5l-0.7,3.3H400.8z"/>
	<path fill="#5B2900" d="M431,355.6l2.8,2.2l2.5,0.7l1.3,2.4l-0.6,1.5l0.2,2.7l1.3,2.9l2.2,0.5c0,0,1.7-1.2,1.8-1.5s0.2-2.3,0-2.4
		s-1.4-1.1-1.6-1.1s-1.1-1.5-1.1-1.5l2.5-0.3l2.1,0.3l1.1,1.5l0.6-1.5l-0.9-1l-0.5-2.2l-0.6-2l1.4-0.4c0,0-0.3-0.2-0.4-0.5
		s-3.8-2.6-3.8-2.6l-5.4-1.2c0,0-3.2-0.6-3.5-0.6s-2.1,0-2.1,0l-0.6,0.8L431,355.6z"/>
	<path fill="#98560F" d="M224.1,334.5l-9.2-2.8l-5.2-3.5l-1.4-5.4l4.9-5.6l9.1-9.2c0,0,15.5-15.5,17.6-16.6l5.9-5.8l8.1-5l7.9-2.9
		h7.9c0,0,9.8-0.9,16.2,1.5l9.9,8.8l8.4,6.9l3.8,3.2l3.4,5.4l-1,6.2l-4.7,2.6c0,0-4.4,2.9-4.9,3s-9.8,5.6-9.8,5.6s-5.1,4.4-5.5,4.6
		s-4.6,3-5.1,3.5s-11.6,3.8-11.6,3.8l-10.5,1.8h-11.8L224.1,334.5L224.1,334.5z"/>
	<path fill="#DDC375" d="M229.9,314.2h-2.4v-3.6l2.4-3.8l2.3-3.6l7.3-7.2l4.8-4.6l5.4-5l3.4-3.2h3.4l4.1,1.8l4.1-1.8l3.8-1.5l3-1.9
		v-1.5l8.4-0.6l4.5,1.1c0,0,1,1,0.9,2s0.5,3,1.2,3.5s2,1.6,2.2,2.1s-1.8,4.9-1.8,4.9s1,5.8,1,6.1s-2.6,3.5-3,3.5s-6,0.5-6.4,0.5
		s-3,2.5-4.5,3.2s-3.2,3.6-3.8,3.9s-3.6,3.4-3.6,3.4l-4.4,3.2c0,0-2.5,2.9-2.9,3s-4.2-0.5-4.6,0s-2.5-0.4-3.6-0.6s-3.6-1.1-4.1-1.1
		s-3.9-0.1-3.9-0.1s-2.5-1.5-3.2-1.5s-2.6,0.2-2.6,0.2l-1.6-1.4c0,0,0.5-1.8-0.1-1.4s-3.1,1.6-3.1,1.6L229.9,314.2z"/>
	<path fill="#CAAC61" d="M298.7,344.5l1.8-4.3v-2.8l-1.8-2.8h3.2l1.7,1c0,0,2-0.5,2.5-1s-1.3-3.2-1.3-3.2l-2.3-1.3l3.2-2.2l3.6-3
		l2.7-2.6c0,0,1.8,1.8,2.2,2.3s2.8,1.7,2.8,1.7l4.5,1.1l3.7,0.8l4.5,0.3l4.3,0.5l2.3-0.2c0,0,0.2-0.8,0-1.3s-2.7-2-2.7-2l-2.5-2.2
		l-2.7-2.8l-1.2-2.3l0.5-1.5h3.3c0,0,1.8-0.5,2-1s0.7-3.3,0.7-3.3l0.8-1.5c0,0,2.8,2.3,3.5,2.7s3,1.2,3.5,1.5s1.7,1.7,1.7,1.7
		l3.2,0.7l3.7-2V312v-4.3c0,0,2.2-0.5,2.5,0s3.8,5.8,3.8,5.8s2,3.2,2.5,3.3c0.5,0.2,4.7,1,4.7,1l4.5-1.3l3.3-0.8l4.5-0.3l2,1.3
		l4.2-1.7l2.7-0.8l3.3,1.3l3-0.5l2.3-3.3V310l4.5,1.3l4.2,2.2l4.7,1l2,0.3c0,0,2.3,1,2.8,1.2s2.7,0.8,2.7,0.8s2.2,1.5,2.8,1.7
		s4,1.7,4,1.7l4.5,2l3.8,1.6l-5-0.7l-4.7-1l-2.5,0.6c0,0-0.8,1.4,0,1.4c0.8,0,7.3,0,7.3,0l2.4,1.8c0,0,0,1.2-1.2,2
		c-1.2,0.8-3.5,2-4,2s-2.7-1-3-0.3s-0.7,2.5-0.7,2.5l-0.7,1.7l-2.5,1c0,0-2.5,1-3,1s-4.2,0-4.2,0l-3.3-0.2l-2.9-1l-2-1.5l-5.5-1.8
		l-2.7-2l-2.2-1.2l-3.3-1c0,0-5-1.2-5.8-0.9s-2.8,0.8-3.3,1.1c-0.5,0.3-2.2,1.8-2.2,1.8l2.3,2.7l6.7,3.7l4.2,2.3l1.2,1.5
		c0,0-0.8,1-1.3,1.5s-3.5,2.2-4,2.2s-3,1.5-3,1.5h-3.2h-2.2l-2.8-1.2l-2.5-0.8l-2,2h-3c0,0-1,0-1.4,0s-0.7-2.2-1.8-2
		s-2.6,0.3-2.8,0.8s-0.5,3-0.5,3h-1.3h-2h-1.8h-2.5c0,0,0.8-1.5,0.7-1.8s-1.2-2.8-1.2-2.8s-2.8,1.2-3.7,1.6
		c-0.8,0.4,1.1,0.8,1.1,0.8s-0.8,2-1,2.1s-1.8,0.7-2.1,0.6c-0.3-0.1-2.6-1.4-2.6-1.4s-0.8-2.2-0.8-2.6s-0.4-2.8-0.4-2.8l-0.3-1.7
		c0,0-2.8,0-3.8-0.2s-4.4-1.1-5.2-1.1s-3,1-3.5,1.3s-2.2,0.9-2.9,1.5s-2.4,1.8-3.2,2.5s-2.2,2.1-2.6,2.8c-0.4,0.7-3.2,1.7-3.2,2.6
		c-0.1,0.9,0.2,3.6,0.2,4.2s1,3.1,1.1,3.3s3.1,0.8,3.1,0.8s2.9,0.2,3,0.7s0.2,1.9,0.2,2.1s1.3,2.2,1.3,2.2l15.1-7.2l3,0
		c0,0,1,2.7,1.1,3s0.5,4.4,0.6,4.8s-0.5,3.5-0.7,4.8s0.4,3.8,0.6,4.1s0.4,1.9,0.4,1.9s-1.8-0.2-2.2,0s-1.4-0.7-1.7-0.8
		s-1.6-1.9-2.3-2.8s-1.2-0.8-2.1-1.7c-0.9-0.8-1.4-1.7-2.8-1.5c-1.4,0.2-0.9,0.3-1.4,0.2s-0.6-0.6-1.1-0.5s-3,1.6-3,1.6
		s-2.7,1.1-3.3,1.4s-4.2,1.7-4.4,2.2s-0.2,1.1-0.5,1.9s-1.1,1.6-1.2,3.1c-0.2,1.4-0.6,3.1-0.6,3.8s-0.2,1.8-1.1,2.2
		s-2.8,0.8-3.4,1.3s-1.8,1.2-2.3,1.7s-0.8,0.2-1.2,0s-0.8-0.6-1.5-1.7s-1.4-1.8-1.7-1.9s-0.6-1.8-1.1-2.1s-5.2-3.2-5.2-3.2
		s-2.2,0.1-3.6,0.1s-2,0.2-2,0.2l-4.5,2.5c0,0-1.1,2.8-1.2,3.2c-0.1,0.4-0.2,3.5-0.5,4.2s-1,2.2-1.2,2.5s-1,1-1.2,1.2
		s-1.5,0.4-2.1,0s-1-1.4-1.2-2.6s-2-3.5-2.6-4s-0.2-0.2-0.6-0.5c-0.4-0.3-1.6-0.8-3.1-0.8s-2.3-0.7-3,0s-1.7,2.1-2.7,2.4
		c-1,0.3-2.2,0.3-2.8,1.3s-0.8,1.6-0.9,1.8s-0.6,2.6-0.6,2.6s-0.2,0.5-0.6,0.7c-0.4,0.2-2.8,0-2.8,0s-1.3,0.7-1.5,0.1
		s-2-2.4-2.3-2.5c-0.2-0.1-2.6,0.2-3,0.3c-0.4,0.2-2.5,1.2-2.7,2.1c-0.2,0.9-0.6,3.3-0.7,3.7c-0.1,0.3-0.4,0.8-0.6,1.6
		c-0.2,0.8-0.3,2.7-0.7,3.3c-0.3,0.7-0.8,1-1.2,1.2s-2.7,0.7-2.7,0.7s-0.8-0.3-1.2-1.2c-0.3-0.9-1.3-2.5-1.3-2.9s-0.2-1.7-0.8-2.1
		s-2-0.8-2.1-1.5s-0.3-1.6-0.4-2.1s-0.4-0.2-0.3-1.6c0.1-1.4,0.3-2.9,0.6-4s0.3-1.9,0-2c-0.3-0.1-1-0.9-1.8-1.4
		c-0.8-0.4-3-1.5-4.4-1.7s-3.2-0.2-4-0.7s-0.4-0.6-1.4-0.7c-1-0.1-7.6-1.2-7.6-1.2s-2.6-4-2.8-4.6s-5.7-3.9-6-4s-5,0.4-5,0.4
		l-6.8-0.2c0,0-1,1.6-2.2,2.5s-4.6,2.1-4.6,2.1s-4.2,1.2-4.5,0.8s-2.3-2-2.2-3.1s0.8-3.3,0.8-3.3s2.4-1.6,2.6-1.5s1.9,0.8,1.9,0.8
		s0.4-1.7,0.2-2s-1.3-1.4-1.3-1.4s0.6-0.8,0.9-1.1c0.3-0.3,1.8-0.9,1.8-0.9s2.5-2,3.1-2.3s3.6-2.3,3.6-2.3l4.7-5.2l3.8-3.2l5.3-2.8
		l1.9-2c0,0,1.1,3.4,1.2,4c0.1,0.6,0.9,3.9,0.9,3.9s0,2.8,0,3.3s-0.2,2.3-0.1,3c0.1,0.7,2.2,2.4,2.2,2.4s2.7,0.7,3.7,0.4
		s2.4-1.4,2.5-2.2s0.7-2.9,0.7-2.9l0.8-0.8c0,0,0.9,3,1.2,3.5s0.5,2,0.8,2.3s1.8,1.2,2,1.2s0.8,0.2,1.2,0.2s1.9,0.5,1.9,0.5l3.2-1.1
		c0,0,1.2-1.2,1.8-1.8c0.5-0.7,1.2-3.2,1.2-3.2l0.8-4c0,0,0.2-0.8,1.1-0.8s2.1-0.1,2.3-0.3s0.4-2.2,0.4-2.2s-0.2-1.2-0.3-2.1
		s0.4-1.6,0.4-1.6l1.4-0.4l1.4,0.2l1.8,1.5c0,0,1.3,1.9,1.5,2.8c0.2,0.9,1.7,3.2,1.8,3.3s2.1,0.9,2.6,0.9s3.2,0.5,3.2,0.5
		s5-0.5,5.2-1.4c0.2-0.9,0.9-2.6,0.9-2.6l-0.8-0.8l2.2-2.9l4-1.3c0,0,3.1,0,3.3,0s3.3-1.2,3.3-2.3s-0.8-3.5-0.8-3.5l3.3-1.6
		c0,0,1.2-1.8,1.8-1.8s3.3,0.5,3.3,0.5l2.8,1.4c0,0,1.9,1,2.2,1.2s1.9,1.6,2.2,2s2.2,2,2.2,2L298.7,344.5z"/>
	<path fill="#52453B" d="M465.1,433.3l3.7,3.4l3.5,0.5l5.8-1c0,0,7.9-2.7,8.2-2.9c0.4-0.1,2.5-3.1,2.6-3.6s0.5-5.5,0-5.5
		s-5.6-4-5.6-4s-4.5-1.6-4.9-2.3c-0.4-0.7-4.4-6.3-4.7-7.1s-3.6-4.4-3.6-4.4s-2.6-2.7-2.6-2.7c0,0-1.8-0.5-2.5,0
		c-0.8,0.5-1.1,4.5-1,5.7s-0.3,6.1,0,6.5c0.3,0.4-0.3,3.9-0.1,4s-1.1,0.4-1,1.2s-1,0.1-1.2,1.3s-1.2,2.4-1.1,3.2"/>
	<path fill="#0B0604" d="M457.2,489.2l-3.5-1.6l-2.8-2.3l4.9,1.1l5.9,0.2c0,0,5.9,0,6.5,0s9.6-0.1,10.4-0.5s3.9-1.8,5.1-1.6
		s10.4-0.1,11,0s7.4,0.9,8.8,0.9s11.4-1.7,11.4-1.7s0.4,1.7,0,1.9s-8.5,2.3-8.8,3.1s-8.6,1.8-8.8,2.5s-5.2,2.1-5.2,2.1l-6.7,0.6
		h-10.1c0,0-4,1.1-4.7,1c-0.8-0.1-4.5,0.7-4.5,0.7l-3.4,1.4l-2.1-1.4l-2.2,1.3c0,0,0.4-2.3,0-3s-2.8-2.7-2.8-2.7v-1.5L457.2,489.2z"
		/>
	<path fill="#5C4D3A" d="M370.1,466.8c0,0-0.4,5.2-0.7,5.6s-1.6,3.8-1.3,3.9s1.6,3.7,2.2,4.7c0.5,1,2.3,5.4,2.3,5.4s2.1,2.4,2.7,0.5
		s3.2-6.4,3-7.6s0.1-7.5,0-7.5s3.3-0.7,4.2-1.1s6.6-1.3,7.3-1.4s3.9-2.1,5.4-2s11.5-0.5,11.5-0.5l2.2,1.2c0,0,5.1,6.5,5.2,7.1
		s3.6,4.9,5.9,5.4s4,0.9,3.7,0.5c-0.2-0.4-5.3-5.9-5.3-5.9l-3.8-5.2c0,0-4.3-3.3-4-3.7c0.3-0.4-1.6-3-2.3-3.8s-3.2-4.7-3.2-4.7
		l-3.4-5.7l-2-4l-2.1-1.4L396,448l-7.1,3.7l-14.4,7.1H369"/>
	<path fill="#5A350B" d="M400.6,497l3.2-2.2l1.1-2.1l-1.9-1.4c0,0,0.9-1.3,0.7-2.1s1.3-2.8,1.3-2.8l-2.8-5.9c0,0,1-1.8,1.6-0.9
		s5.2,3.9,4.8,5s-0.2,2.9,0.7,3.6s1.5,1.2,2,1.6s4.5-2.6,4.6-2.9s0-3.2,0-3.2l0.7-1.8c0,0,1.6,0.2,1.7,1.4s2.8,2.8,2.8,2.8
		s1.5,0,1.5,0.7c0.1,0.7,0.6,1.8-0.5,2.4s-4.6,2.2-4.8,2.7s-3,1-3.6,2.2s-2.4,3.4-3.9,4s-3.6,1.1-4.4,1.5s-4.4,1.7-4.4,1.7l-1.6,1.2
		l-4.5,0.8c0,0-0.9-2-1-2.5s2.3-1.4,2.3-1.3s2.5-3,2.5-3L400.6,497z"/>
	<path fill="#2A241B" d="M424.8,482l4.2,2.3c0,0,2.8,2.4,3.1,2.4s5.6,1.1,6.6,1.2s5.6,1.2,5.6,1.2l8.5,1.5l4.9,0.5
		c0,0,1.9,3.2,2.2,3.6s-0.7,2.2-0.7,2.2l-2.8,1.6l-7.1,5.2l-20.9,10.5l-10.4,4.6l-5.4,1.6l-4.8,2.2l-3.7,0.2h-6.9
		c0,0-3.1-0.4-3.4-0.4c-0.3-0.1-4-0.8-4-0.8l-3.5-4l-5.6,0.3l-4.4-1.4v-7.8l3.5-3.1c0,0,3.3-0.2,5.9,0s7.6-1.2,8.1-1.5
		s3.4-2.4,3.4-2.4l5.2-3.1l6.2-4l6.6-3.9c0,0,1.8-2.3,2.9-2.7c1.1-0.3,3.4-1.3,3.9-1.3s2.2-1.1,2.4-1.8
		C424.8,484.2,424.8,482,424.8,482z"/>
	<path fill="#21110A" d="M311.5,471.8l-0.8,1.8l0.8,1.8c0,0,2.8-1.1,3.3,0s1.4,0.4,1.4,0.4l0.6-0.7v-1.2l-1.9-0.4l-1.8-0.2l-1.3-1.4
		L311.5,471.8L311.5,471.8z"/>
	<path fill="#20160E" d="M277.9,487.9l1.9,1.6l1.2-0.8l1.2-2.2l1.8,0.7l0.5,0.1l1-1.6c0,0-0.8-1.2-1.6-1.4s-1.2-0.8-2.2-0.8
		s-2.9,1.8-2.9,1.8l-1.4,1.7L277.9,487.9z"/>
	<path fill="#3B2817" d="M297.3,491.9c0-0.2,0-2.4,0-2.4s0.7-1.9,0.9-2s3.5-0.8,3.8-0.7s3.8,0,4.6,0c0.8,0,2.1-0.6,2.6,0
		s0.9,3.1,0.9,3.4s-0.8,0.6-0.8,0.6l2.6,1.1l2.5,2.1c0,0,1.2-0.2,1.4-0.4s1.2-2.1,1.2-2.1s0-0.8-0.8-0.7s-1.5-0.2-1.5-0.2
		s-0.4-1.2,0.5-2s1.4-2.6,1.8-2.8s-0.4-1.2,0.9-1.3s3.9-0.7,4.2-0.8s-1.1-1.1-1.1-1.1s-2.2,0.1-2.7,0.3s-2.1,0.2-2.8,1.1
		s-2.2,1.5-2.2,1.5s-1.2-0.1-1.5-0.5s-1.4-1.6-1.4-1.6l2.2-2.9l1.8-2.4c0,0,3.8,0.2,3.9,0s1.9-0.6,2.1-0.6s2.1,0.6,2.9,0.6
		s2.2-1.1,2.6-0.6s0.2,1.4,0.6,1.7s1.4,0.5,1.8,0.5s1.8,0.2,2.2-0.1s2.1-1,2.3-1.2s0.9-0.3,0.5-1.1s-2.5-2-2.5-2l-0.9,1.2l-0.8,0.4
		c0,0-0.7-0.1-1.1,0s-1.9-0.1-2.1-0.6s-1.7-1.6-1.7-1.6s-0.5-0.1-1.4,0s-1.2,0.5-1.9,0.4s-1.5-0.6-1.6-0.8s-0.2-0.6-0.2-0.9
		s-0.5-1.2-0.5-1.2s-0.3-0.7-0.6-0.9s-2.1-1.2-2.5-1.3s-1.8,0-1.8,0l-0.8-0.3c0,0-0.4-0.8-0.6-0.9s-1.5-0.8-2.1-0.8s-1.3-0.2-2.1,0
		s-1.4,0.2-2,0.3s-2.9,0.1-2.9,0.9s1.4,1.7,1.4,1.7s1.4,0.2,1.6,0.4s0.6,0.9,0.6,0.9s-0.4,0.3-0.6,0.4s-1.2,0.1-1.9,0.1
		s-1.7,0-2.2,0.1s-1.9,0.4-2,0.2s-0.3-2.1-0.9-2.1s-1.4-0.1-1.4-0.5s0.1-1.8,0.1-1.8l-0.4-0.4c0,0-1.5-0.3-1.7-0.3s-0.4,1.1-0.4,1.1
		l-1.6,1.1v1.2l2,1.2l1.2,1.9c0,0-0.4,1.6-0.4,1.8s-1.5,1.1-1.5,1.1l-2.1,0.3c0,0-1.4,0.4-1.9-0.8s-2.8-2.6-2.8-2.6l-2.1-0.7
		c0,0-0.6,2.2-0.5,2.4s2,1.8,2,1.8s0.6,1.9,0.4,2s-1.6,1.4-1.6,1.4l-1.9,1.6l-2.1-1.5c0,0-1.8-0.1-2.4,0.2s-1.1,0.8-1.8,0.8
		c-0.8,0-1.9-0.5-2.1-0.6s-0.6-0.6-1.1-0.4s-1.9,0.8-1.9,0.8l-1.7,0.3l-1.7,0.4l-1.9-0.9c0,0-0.8-0.2-1.1-0.2s-1.6,0.8-1.6,0.8
		s0.1,0.1-0.2,0s-1.8,0.4-1.8,0.4s-0.4,0.3-0.4,0.5s-0.4,0.9-0.6,1.4s-1.1,1.1-1.8,1.1s-1.4,0.1-1.6,0.8s-0.5,1.2-0.5,1.2
		s-1.2,0-1.6,0.1s-1.2,0.3-1.2,0.5s-2.1,0.4-2.1,0.4l-2.1,0.8c0,0-1.4,0-1.6,0s-1.2-0.4-1.2-0.4s-1.4-1.3-1.6-1.3s-3.6-1.3-4-1.2
		s-2.2,0.8-2.8,1.1s-0.8,0.1-1.8,0.6s-1.6,1.4-1.6,1.4s0.5,0.9,0.8,0.8s2.3,0.1,3-0.4s1.2-0.9,1.4-0.9s1.8,0.1,2,0.1
		s0.9,0.2,1.3,0.4s1.2,0.4,1.2,0.4s0.8,0.3,0.8,0.5s-0.4,0.4-0.8,0.8s-0.9,0.7-1.4,0.9s-1,0.4-1.3,0.8s-1.4,0.7-1.4,0.8
		s-0.3-0.5-1.6,0.4s-1.9,1.8-2.1,1.9s-1.4-0.3-1.4-0.3s-1.8,0.8-1.8,1.3s-0.6,1-1.1,1.8s-1.4,1.6-1.4,1.8s-0.4,1.6-0.4,1.8
		s-1.2,1-1.4,1.2s-1.8,0.2-2.2,1.1s1.1,1.1,1.1,1.1h3.1c0,0,1.7-0.9,2.1-1.4s1.1-1.2,1.2-2.1s-0.3-1.6,0.3-2.1s2.3-1.4,2.3-1.4
		s2.3-1.1,2.6-1.1s1.5-0.1,2.1-0.1s2.6,1.4,2.6,1.9s-0.2,1.2,0.1,1.9s0.9,1.9,1.1,2.5s-0.1,1.8,0.1,1.9s-0.4,1.1,0.9,1.3
		s2.8,0.3,2.9,0.3s2.5-0.4,2.7-0.5s0.1-1.3,0.1-1.3s-0.8,0.3-0.7-0.9s0.2-2.1,0-2.6s2.4-0.6,2.4-0.6s2.2-0.4,2.4-0.6
		s1.9-1.1,1.9-1.1l1.4-1c0,0,1.1,0.2,1.2,0.4s1.2,1.7,1.2,1.7s0.9,1.4,1.3,1.5s1.1,0,1.1,0l2.8-1.5l2.4-0.9c0,0,1.4,0.3,1.9,0.3
		s2.6,0,2.6,0l0.4-1.6l0.3-2.6l0.4-1.2l2.5-1.8l3.6-2.5c0,0,1.4,0.4,3.3,0s4.5-0.6,4.5-0.6s1.1-0.1,1.1,0.2s0.2,1.4,0.2,2.1
		s-0.1,2.6-0.4,2.8s-1.4,1.4-2,2.3s-1.2,1.6-1.4,2.1s-0.5,2.4-0.3,2.5s0.5,0.7,1.1,0.2s1.7-1.7,1.9-2.1s1.8-3.4,1.8-3.4l2-2.5
		l1.3-2.2L297.3,491.9z"/>
	<path fill="#190F0C" d="M291.4,482.5c0,0-0.8,1.3-1.1,2.1s-0.8,1.6-0.8,1.9s0.6,1.1,0.9,1.1s2.1,0.1,2.2,0s0.4-1,0.8-1.3
		s1.2-1,1.4-0.9c0.2,0,1.1,0,1.4-0.3c0.3-0.3,0.6-1.3,0.6-1.5s-0.1-1.2-0.6-1s-2.1,0.3-2.3,0.3s-1-0.3-1.3-0.3
		C292.2,482.5,291.4,482.5,291.4,482.5z"/>
	<path fill="#1E120F" d="M301.3,481.8c0,0,2.1,0.7,2.4,0.7s3.4,0.6,3.4,0.6s2-1.8,2.2-2.3s0.9-1.5,0.9-2.1s-0.4-2.1-0.7-2.1
		s-2.4-1.1-3.6-0.9s-1.3,0.1-2,0.8s-2,1.1-2.7,1.2s-1.3,0-1.8,0.1s-0.5,1-0.5,1.5s0.7,1.9,0.7,1.9L301.3,481.8z"/>
	<path fill="#0A0908" d="M389.1,520.7l-2.6-2.9c0,0-2.4-2.5-2.5-3.6s-0.6-2.9-0.8-2.9s-1.4-2.6-1.6-0.8s-0.4,4-0.5,4.8
		s-0.1,3.2-0.4,3.2s-2-0.1-2.2-0.4s-0.8-0.4-0.9-1.8s0.2-3.6,0-3.9s-0.1-2.1,0.3-2.9s1.5-2.3,1.5-2.3s2.6-0.7,3.2-0.4
		s1.9,1.3,1.9,1.3s3.4-0.6,3.6-0.7s3.3-0.8,3.7-1.1s3.9-2.1,4-2.3s0.6-1.6,0.6-1.6l-1.5-1l-2.8-2.1l-3.2-0.9l-2.5-0.6l-1.2-1.2
		c0,0,0.4-1.8,0-1.9s-2.7-1.4-2.7-1.4l-1.2-1.4H379c0,0-1.6,1.2-1.8,1.4s-2,0.5-2,0.5h-0.8l-0.4,0.6v1.6l-0.6,2.8v4.9l-1.4,1.9
		c0,0-0.6,1.9-0.9,2.4s-1.2,1.8-1.4,2.7s-0.2,3.2-0.7,4.2s-0.8,2.9-1.1,3.4s-1,2-1.1,2.2s-0.9,1.2-0.9,1.2l2.7,1.2l2.2,1.2l2.9,0.4
		l2.6,0.6c0,0,3.2,0.5,3.6,0.5s4,0.3,4,0.3h2.5h3.2l5.3-0.8l4.8-1.2l3.6-0.4l1.7-0.7l-4-0.2l-3.8,0.5c0,0-1.8-0.6-2.3-0.6
		s-2.6-0.6-2.6-0.6h-2L389.1,520.7z"/>
	<path fill="#4E4546" d="M517.6,412.5l1-1.2l1.2-1.8l3.6-1.6l2-1.2l2.4-2.6l1.1-3.5V396h-1.3l-3.8,0.3v-3l-2-2.2l-0.9-1.4l-2.4-1.6
		l-1.8-0.9l-2.7-1.7l-2.1-2.1l-2.5-1.4l-3.6-1.7l-2.2-1.7l-2.4-1l-4.2-0.2l-3-0.9l-2.7-1.8l0.2-2.4l1-1.8c0,0-1.7-0.1-2.2,0
		s-6.1,2.6-6.8,2.8s-8.1,5.7-8.7,6.1c-0.6,0.4-6.5,6.7-7.7,8.7s-1.1,8.2-1.1,8.2s1.7,10.8,4.2,14.5l5.1,6.2l3.9,3.7l3.6,2l1.8,1.5
		l2,1.3l3.2,0.8l2.1,0.3l7.6,0.6h2.9h3.7l4.4-0.3l3.2-1.4l4.1-2.5l3.4-3.1l2.9-2.8c0,0,1.3-1.8,1.6-2.4c0.3-0.6,0.6-2.4,0.6-2.4
		s-1-0.2-1.4-0.2s-4.6-0.1-4.6-0.1h-1.4l-1.1,0.6L517.6,412.5z"/>
	<path fill="#AA5405" d="M424,405.7c0,0-1.5-6,5.8-10.8l2.5-4.5c0,0,3.8-2.7,4.8-3c0,0,4.5-1.2,5.2-0.9c0,0,4.5,0.7,2.7,8.4h3.5
		l1,0.9l-3.5,6.8l-0.8,3.2l-0.8,1.8l-1.3,2.3l-1.3,1.5l-2-0.8l-2.2-3h-1.8l-2.3-1.1l-2-1.5l-1.8,1.4l-2,0.1h-1.8L424,405.7z"/>
	<path fill="#A03A06" d="M440.6,409.3c0,0,0.4-2.1,0.4-2.4s0-3.8,0-3.8s-2.7,0.2-3.4,0s-1.9-1.6-2-1.8s-1-0.5-1.7-0.8
		c-0.7-0.3-2.2-0.8-3-0.4s-1.9,1.2-2,1.5c-0.1,0.3,0.2,0.3-0.2,1.1s-0.4,2.3-0.4,2.3l1.4,0.1l1.3-0.8c0,0,0.6,0.1,0.8,0.3
		s1.6,0.8,1.9,1.1s1.9,1.1,2.2,1.1s1.4,0.4,1.6,0.4s0.9-0.4,1.1,0.3s1,1.8,1,1.8L440.6,409.3L440.6,409.3z"/>
	<path fill="#D7C663" d="M381.2,471.3c0,0,10.8-6.3,27.3-5.2c0,0,9,12.2,15.3,15.5v3.3l-1.2,1.8h-2.2l-2.7-0.8l-1.8-3.5l1.2,4.3
		l-2.5,2.5l-2.8,0.8l-3.3-2.7l-1.5-2.2l-1-2.5l-2.2-1.7l-3.3-1.5l3,2.5l1.3,3l0.5,3l-0.2,1l-1.2,1h-1.5l0.8,2h1.3l0.8,1.8l-2,1.5
		l-3.3,2.2l-1.5,1v1.5l-1.5,1.2h-2.5l-2.3-2l-2.5-0.8l-3.2-1l-0.7-2l-0.8-0.8l-2-0.3l-0.8-2.8l-1.2-1.8l-2.2-3.3l-1-2.7l-2,1.3
		l-1.5,0.5v1.8l-1.2,0.2l-0.7-1.2V483l-1.3-1.8l-1.2-3.2l-1.2-2.2l1-1.2l1.5,0.3l-0.7-2l1.8-2.4l6-1.3h1.8l-0.3,1.3L381.2,471.3z"/>
	<path fill="#774500" d="M390.4,492.6l0.8,0.8l1.7,0.8l1.1-0.8v-1.5l-1.8-1.5c0,0-1.2,0.1-1.4,0s-1.9-1.6-1.9-1.6l-1.7-1.8l-1.5-0.9
		l-1.6-1.2l-2.3-1.2c0,0-0.5-0.9-1.2-0.9s-2.1,0-2.1,0l-0.9,0c0,0-1-0.3-1.1-1s-0.3-1.8-0.5-2.4s-1-3.6-1-3.6l-1.2-1.3l-0.7,1
		l0.4,2.3c0,0,0.2,2.3,0.2,2.7s0.6,2.8,0.6,2.8l1.1,0.4c0,0,0.7,0,0.9,0s1.1-0.4,1.1-0.4l0.7,0.8l0.5,1.4l1.8,1l1,2l1.1-1.1l1-0.1
		l1.4,1.4c0,0,0.2,0.2,0.4,0.4c0.2,0.2,1.1-0.5,1.4-0.4s0.8-0.4,1.2,0s1.3,1.2,1.3,1.2l0.6,1.2v1.2L390.4,492.6z"/>
	<polygon fill="#C4A8A8" points="392.4,489.2 394,489.2 394.9,487.9 395.9,487.2 396.9,486.8 397.4,486.1 397.4,484.8 396.4,484.6 
		395.4,485.7 394,486.4 393.1,486.9 392.4,487.5 392.4,488.4 392.1,488.8 	"/>
	<path fill="#D2C1AD" d="M410.8,478.2l-1.8,1.1l-0.2,1.2l1.7,0.4h1.9c0,0,1.8-0.6,1.9-0.6s0.9,0.2,0.9,0.2s0.6-0.3,0.7-0.2
		s1.5,0,1.5,0v-1.8l-0.6-1.2c0,0-1.7-0.4-1.8-0.2s-0.7,0.8-0.7,0.9s-0.7,0.6-0.8,0.6s-1.2,0.2-1.2,0.2L410.8,478.2z"/>
	<path fill="#7B4906" d="M400.8,485.5c0,0-0.2,1-0.2,1.1s0,1-0.2,1.3s-0.6,1-0.6,1s1.1,0.6,1.1,0.7s0.4,0.3,0.5,0.6
		s-0.3,0.7-0.4,0.8s-1.8-0.1-2,0.2s-0.7,0.9,0,1.4s1.4,0.5,1.6,0.8s1.3,0.3,1.4,0.3s0.6-1,0.6-1l-0.2-1c0,0-0.5-0.5-0.5-0.8
		s-0.2-1.1-0.1-1.3c0.1-0.1,1.3-0.5,1.3-0.5s0.4-0.7,0.4-0.8s-0.1-1,0-1.2s-0.5-0.5-0.7-0.4s-1.1,0.2-1.1,0.2L400.8,485.5z"/>
	<path fill="#A36D4E" d="M384.6,493.3L384.6,493.3l0.7-1c0,0,0.8,0.1,0.9,0s1.6,0,1.6,0l0.8-0.5c0,0,0.4-0.8,0.4-1.1s-0.2-1-0.2-1
		s-1-0.4-1.3-0.4s-0.7-0.4-0.9,0s-0.6,1.3-0.6,1.3s-0.3,0.3-0.7,0.4s-1,0.2-1.2,0.6s-0.4,0.4-0.2,0.8s-0.1,0.4-0.1,0.4L384.6,493.3z
		"/>
	<path fill="#BB932D" d="M395.2,480.4l-0.5,1.2c0,0-0.1,0.6,0.2,0.8s1.8,0.8,1.8,0.8s1.1-1.5,1.1-1.4s0-1.4,0-1.4h-2.3H395.2z"/>
	<polygon fill="#CEAA6F" points="402.6,482.4 401.9,483.3 401.9,483.7 402.6,484.1 403.5,484.3 403.8,483.9 403.8,482.9 
		402.8,482.4 	"/>
	<path fill="#160E0C" d="M504.8,395.2c0,0-9.8-8-13.5-9s-9.7,1.2-11.7,5.3s-1.7,8.5,3.8,15.8c0,0,3.2,4.5,6.3,5.3l3.7,2
		c0,0,7.7,0.8,8.8,0c0,0,2.7-0.8,3.7-2.5s2-3,1.5-13.7L504.8,395.2z"/>
	<polygon fill="#F1D6FF" points="494.1,394.5 494.1,396.8 495.7,397.6 497.5,397.6 498.7,397.6 498.7,396.4 498.7,395.3 
		498.7,394.5 499.3,394.1 500,394.1 500,392.1 498.7,392.1 497,392.1 496.6,392.8 496.4,393.9 495.5,394.3 494.1,394.2 	"/>
	<polygon fill="#BEAFC1" points="505.3,388.1 506.5,388.1 507.1,387.6 507.1,385.9 506.6,385.3 504.8,384.8 503.8,384.8 
		503.3,386.5 504,386.5 504.7,387.7 	"/>
	<polygon fill="#7D7A71" points="509.1,394.8 510.4,394.8 510.4,393.1 509.1,391.5 507.1,390.2 505.2,389.6 503.3,387.8 
		502.1,386.9 501.2,386.9 500.5,385.9 500.5,384.8 498.9,384.8 498,385.9 498.5,387 500,387.3 500.8,388.1 502.4,389.8 505.2,391.2 
			"/>
	<polygon fill="#9E9AA3" points="515.5,388.1 514.3,388.8 514.3,390.2 515.5,392.1 516.4,393.8 517.8,393.8 518.6,394.8 
		519.9,394.5 521.1,393.6 521.1,392.1 520.5,390.9 519.9,389.1 517.7,388.6 	"/>
	<polygon fill="#FFF7FF" points="512.7,417.6 514.3,418.6 515.7,418.1 516.4,417.1 516.4,415.7 515.7,414.7 514.5,414.3 513.4,415 
		512.7,416.1 512.7,417.1 	"/>
	<path fill="#272624" d="M502.3,414.7l1,0.4l5-1l2.8-0.9l1.5-1.7l1-2c0,0,0-2.5,0-2.8s-0.5-2.6-0.5-2.6l-1.4-2.1l-2-1.1l-0.2-1.4
		l-0.6-1.9l-1.3-1.6l-2-0.6l-1.2-0.6l2,2.8l1.1,0.9c0,0,0.2,2,0.1,2s0,2.5,0,2.6s0,2.6,0,2.6v2.9l-0.9,2.9l-1.5,1.5l-1.6,1.2
		L502.3,414.7z"/>
	<polygon fill="#9C9796" points="483.8,421.5 483.4,420.2 485.8,420.2 487,422.2 488.5,422.7 490.1,423 490.1,423.9 492.8,424.3 
		494.6,424.3 497,424.3 499.4,424.3 500,425.2 500.3,425.8 500.3,426.8 499.2,426.8 497.5,427.1 495.5,426.7 494.1,426.2 
		493.1,425.7 489.8,425.4 488,425 486.3,424.5 486.2,423.6 485.8,422.7 484.8,422.2 	"/>
	<path fill="#423631" d="M476.9,407.5l0.8,1.8c0,0,1.1,1.5,1.4,1.6c0.3,0.1,1.4,1.4,1.4,1.4l1.6,1.2l1.2,0.8l2.2,1.8l1.6,1.2
		l3.3,1.3l2.6,1.6l2.2,1.2l1.7-0.3c0,0,2.5-0.1,3-0.1s3-0.2,3.3-0.2s3.3-0.2,3.3-0.2l4.1-0.3l2.1,0.7l0.8,0.8v1.1l-1.7,1h-2h-3.9
		l-2.8,0.5l-3-0.5l-2.8-1l-3.5-0.9l-2.8-1.9l-3.9-1.7l-2.2-1.6l-2.3-1.8l-2.1-1.8l-2.1-2L476.9,407.5z"/>
	<path fill="#231412" d="M522.2,426.6l2.5-3.9c0,0,2.6-2.2,2.8-2.5s2-2.5,2.3-2.7s0.6-1,0.6-1v-1.8h1.8l1.8,0.4l1.3,0.5h2.1h2.8v2.5
		l0.9,2.5l1.3,2l1.2,2.4c0,0,0.7,0,0.9,0.2s1.3,2.3,1.3,2.3v2.8v3.3l-1.4,1.3l-2.5,0.7l-1.4,1.2l-1.1,0.9l-1.4,0.4l-2.2-0.3
		l-2.5-1.3l0.8-3.1l-1.8-0.2l-1.8-0.4l-1.6-0.4l-1.6-0.9l-1.2-1.2l-1.1-1l-1.6-1.2L522.2,426.6z"/>
	<path fill="#332122" d="M528.2,375.1l1.4-2.4l1.5-2.1h-2.2h-3.3h-3.7h-2.2h-1.6l0.8,1.2l2.2,1.1l2.2,1.3l1.4,2.1l-0.8,1.6l-0.9,2.4
		l-0.5,2.1l-1.7,1.7l-0.2,1.2l2.3,0.8h2.2c0,0,0.7,0.8,0.8,1.1s0.8,0.6,0.9,1.1s1.5,2,1.8,1.8s2.6-0.6,2.6-0.6s0.9-1.2,0.8-1.2
		s-0.2-3.2-0.2-3.2l-1.4-1.3l-0.9-1.5c0,0-0.7-2.4-0.5-2.7C529.1,379.1,528.2,375.1,528.2,375.1z"/>
	<path fill="#180F0F" d="M565.4,423.6h1.4h0.9v-1.7l-0.8-1.2c0,0-0.2-0.5-0.4-0.6s-0.6,0-0.6,0v-1.5l1.2-0.6l1.2-0.4l0.8-1.1
		l-0.4-0.5c0,0-0.8,0.1-1.1,0s-2.2,0.5-2.2,0.5l-1.4,1l-0.9,1.1l-1.2,1.2c0,0,0.1,0.4,0,0.7s1.1,1.6,1.1,1.6l1.2,1.1L565.4,423.6z"
		/>
	<path fill="#C1A849" d="M545.3,426.5h2.1h1.7l1.2-0.5v-2.3l2,0.6c0,0,2.2,1.1,2.7,0.8c0.4-0.3,2.8-0.5,2.8-0.5l0.6-1.5h1.2
		c0,0-0.2-1.8,0-2.1s0-2.3,0-2.3h-1.2l-0.5-1.5l-0.3-1.1l-0.2-1.3l-1.4-0.3c0,0-0.4-0.1-0.7-0.3s-1.6-1.8-1.6-1.8l-0.5-1.2l-1.2-0.5
		c0,0-0.2-0.3-0.2-0.6s0-1.8,0-1.8l-0.5-1.6l-1.2,1.1c0,0-1.4,0.7-1.7,0.8s-1.7-0.2-1.7-0.2l-1.3,0.9l-0.4,1.2l-0.9,0.7l-1.2,0.3
		l-1.3,1.2l-0.4,1.4l-0.8,1.7l0.2,1.3l0.2,1.2l0.7,1.2l0.8,1.8c0,0,1,1.3,1,1.4s0.9,2.2,0.9,2.2l0.6,0.5L545.3,426.5z"/>
	<path fill="#D59335" d="M473.9,435.2l-2.6,2.1l-2.1,2.3l-0.4,2.9l1.5,1.7l3.3,1.8h3.9c0,0,2.9-0.6,3.2-0.8s2.2-1.1,2.2-1.1l-1-1.6
		c0,0-1.2-1.3-1.2-1.6s-1.4-1.2-1.4-1.8s-0.7-2.2-0.7-2.2l-0.8-1.4L473.9,435.2z"/>
	<path fill="#D4924C" d="M477.3,435.4l1.7-0.9l2.9-1.2l3.2-0.3l2.6-0.9l2.7-0.7c0,0,2.6-0.6,2.8-0.6s4,0,4,0s4.2,0,4.4,0
		s5.3-0.7,5.3-0.7l2.2,0.5c0,0,1.6,1.2,1.9,1.3c0.3,0.2,2.8,1.2,2.8,1.2l1.8,1.9v0.9c0,0-2.1,0.8-2.3,0.8s-3.8-0.5-4.6,0
		s-3.2,1.3-3.2,1.3l-5,1.2l-5,1.1c0,0-5,1.4-5.3,1.4s-4.1,0.8-4.1,0.8l-3,1.3l-1.7-2.4l-1.4-1.7c0,0-0.6-1.4-0.7-1.7
		c-0.1-0.3-0.5-1.3-0.5-1.3L477.3,435.4z"/>
	<path fill="#31120D" d="M488.1,448.9l0.8-1.3l3-0.3c0,0,4.5,0,5,0s6,0,6,0s6.8-1.6,7.1-1.3s6.4,0.5,6.4,0.4s3.5-0.7,3.8-0.4
		s2.7,0.8,2.7,0.8l1.2-0.8v-1h5.2c0,0,5.2,0,5.8,0s1.2,1,1.2,1s2.4,0,2.8,0c0.4,0,3.1-0.5,3.1-0.5l2.3,0.5l3.2,1l1.7,1.4l2,0.6
		l2.6,0.8l2.5-0.8l2.6-1.2l0.8-1.1l1.4-1l2.3-0.3l2.2,0.2c0,0,0.7,1.5,0.9,1.7s1.3,2.4,1.3,2.4l0.3,1.8v1v1l-0.8,2l-0.5,1.7h-3.5
		l-1-1.2c0,0-2.7-0.3-3.1-0.2c-0.4,0.1-1.9,1.3-2.1,1.5s-2.8,0.4-3.2,0.4s-2.8,0.2-3.3,0s-1-1.3-1-1.3l-2.7-1.2l-2.5-0.5l-1.3-2.4
		c0,0-0.1-0.8-0.3-0.9c-0.2-0.1-2.1-0.9-2.8-0.9s-5.2-1.1-5.2-1.1l-14.2,0.4l-5.5,0.4l-3.8,0.2l-4.5-0.5l-4.9-0.3l-3.8-0.1l-4.5-0.1
		L490,449L488.1,448.9z"/>
	<polygon fill="#B13702" points="445.4,455.8 448.1,455.8 451,455.1 451,453 449.1,449.8 446.5,448 443.9,446.6 440.8,445.9 
		439.1,447.1 439.1,450.4 441,452.6 444.2,454.5 	"/>
	<path fill="#C04405" d="M451,449.8l1.4-1.7h2.4h4l1.9,1.7h1.5l2.4,1.1h3.1l-2.4,2.4c0,0-1.4,1.9-1.8,2.5s-4.2,2.5-4.2,2.5l-2.3-1.8
		l-4.4-0.8l-0.6-1.9L451,449.8z"/>
	<path fill="#C33609" d="M461.8,458.2l1.2,2.1h1.2l3.4,1.4l1.2,0.6l3.2-0.6l4.4-1.4l4.4-0.6l2.2-1l2.2,0.4l3-1.5l2.9-0.7l-5.9-3.2
		l-4.6-3l-3.2-1.1h-5l-2.4,1.1l-1.8,1l-1.4,1.3C466.9,453.1,466,454.2,461.8,458.2z"/>
	<path fill="#9E3702" d="M469.9,463.5v2l1.4,1.4l1.9,2.2l2.8,0.6h6.2c0,0,4.2,1,6,0.9c1.8-0.1,8.3,0,8.3,0h4l4.4-0.5l2.9-0.2l2-1.6
		l1-2.1l-0.9-2l-2.6-0.6h-2.8c0,0-2.6-0.1-3-1.1s-3-1.8-3-1.8l-2-1.1l-3.3-1.2H491h-1.4l-2,0.5l-1.8,0.9l-1.9,0.3l-1.9,0.1l-2.6,0.9
		l-2.4,0.1l-2.2,0.8l-2.9,0.5l-1.7,0.9L469.9,463.5z"/>
	<polygon fill="#938C55" points="500.3,458.2 504.7,457.7 508.8,455.8 513.7,454.8 518.5,455.8 522.2,456.1 526,456.1 528.9,454.8 
		532.3,455.8 534.1,456.5 536.7,458.2 540.2,459 542.2,460.7 543.3,464.4 543.3,465.8 540.2,468.5 538.5,469.3 535.8,469.3 
		528.9,468.3 523.2,467.3 518.8,466.3 515.4,465.2 512.7,463.5 510.6,463 508,462.4 504.5,462.1 502.3,461.2 501,460.5 	"/>
	<path fill="#D13B03" d="M560.5,393.7l-2,2.9v3.1c0,0-0.2,4.4,0,5.3c0.2,0.9,3.3,5.1,3.3,5.1l2.8,2.5l2.7,1.8l3.6,1.7l2-0.4l2.8-1.2
		l1.2-5v-4.4l-1.5-4.5l-4.5-2.9l-4.9-2.8l-4.3-1.2H560.5z"/>
	<polygon fill="#C53704" points="577,413.3 578.2,416.4 580.3,417.8 582.3,417.8 584.3,414.3 585.3,411.5 585.3,406.4 584.5,402.5 
		583.2,400.5 581.2,397.6 579.7,394.8 578,394.8 577,396.6 577,399.3 577,402.3 577,404.9 	"/>
	<path fill="#4C2D17" d="M538.5,469.3l0.3,0.7l2.1,1.1l2.1,0.8c0,0,3.6,0.2,3.8,0s3.8-0.9,3.8-0.9l0.6-2.1c0,0-1.6-1.5-1.9-1.7
		s-2.9-1.4-2.9-1.4s-1.1-1.3-1.1-1.4s-0.3-1.7-0.3-1.7s0.4-2.1,0.4-2.3s0.5-1.8,0.5-1.8s-0.9-0.9-1.1-1s-3.2,0-3.2,0l-2.1-0.7
		l0.1-2.1c0,0-0.9-0.7-2.1-0.5s-2.6,0.5-2.6,0.5v1.3l-0.7,0.4l1.3,0.9l3,0.9c0,0,1.1,0.5,1.5,0.6c0.3,0.1,2.2,1.7,2.2,1.7
		s0.7,2.2,0.7,2.3s0.5,2.6,0.5,2.6l-1.8,1.9l-1.8,1.4L538.5,469.3z"/>
	<path fill="#070403" d="M372.5,458.2l3,4.1h3c0,0,2.9-2,3.2-2.1s3.2-2.3,3.6-2.8s2.6-1.8,2.6-1.8l2.6-1.6l1.5-2.8l2.2-1.6l2.6-1.7
		c0,0,1.1-1.9,1.1-2.1s0.1-3,0-3.7s0.1-3.5,0.1-3.5l1.1-2.5l0.6-3.4v-3.2l0.6-5.4l0.9-2.2l2.4-3.4l2.4-3.6l3.1-2.7l1.9-2.4l2.5-3.6
		l1.1-3l1.2-2.9v-3.2h-1.5l-2.2,2.6c0,0-35.6,33.6-60.8,42.5c0,0-10.2,4.5-15.5,4.5c0,0,14.2,0.4,16.5,1.1c0,0,11.5,5.6,16.6,15.1
		l2.4,3.4l2,0.8l1-1.2l-0.8-2.8L372.5,458.2z"/>
	<path fill="#A65100" d="M468.9,382.1c0,0,14.9-13.2,24.2-14l4-1l1.5-0.9l-2.1-2.6c0,0-9.5,1-12.7,2.6c0,0-8.7,1-12.6,0.5l-1,0.5
		l-0.6,1.4c0,0,0,0.8-0.6,0.8s-1.8,0.2-1.8,0.2v0.9l2.1,0.7c0,0,3.1,0.6-1,5.8l-2.1,3.2C466.2,380.2,465.9,381.7,468.9,382.1z"/>
	<path fill="#CF5700" d="M554.4,397.6h1.9l1.6-2.8c0,0-1-4.9-1.8-5c0,0,0.6-1.8,1.8-1.8c0,0,0.4-2.1,0-5l-3.5-1.6l-3.9-1.3
		c0,0-2.9-0.2-3.1-0.6s0-3.6,0-3.6s-2-1.6-2.4-1.6s-4.1-1.5-4.1-1.5h-3.8c0,0-5.8,2.1-5.8,2.5s0,3.5,0,3.5l2.7,4.8l1,2.3l3.2,1.5
		l3.2,0.1l2.1,1.2l1,3.3l1.7,2.8l4.5,2.8H554.4z"/>
	<polygon fill="#692F19" points="442.2,412.7 443.5,413.7 444.5,413.7 444.5,411.3 444.5,409.7 443.3,410.8 442.2,411.9 	"/>
	<path fill="#E8782D" d="M445.6,413.7V408l0.4-2.3l1.3-3.6l1.4-2.8l1.8-3.5l0.7-1.4l4.3-1.7l3.1-1.4l2.4-0.8l2,0.9
		c0,0,0.6,0.8,0.8,1.2s0.9,2.8,0.9,2.8l0.7,6.2l0.5,3.6l0.9,3.1l1.1,1.8l0.5,3.7l-1.2,2.6l-2.2,3l-1.8,2.5l-1.2,0.9l-3.4-0.8
		l-2.4-2.5l-1.5-1.8l-2.4-2l-2.5-0.9l-3.2-0.2L445.6,413.7z"/>
	<path fill="#AB3800" d="M560.5,391.5c0,0-0.3-2.2,1.3-3.4l1.7-1l2,1l3.7,5l1.6,2.6L560.5,391.5z"/>
	<polygon fill="#AA3006" points="566.9,386.5 571.9,390.4 576,393 575.4,398.4 574.1,398.4 572.8,397.6 572,394.8 570.8,392.4 
		568.6,389.8 	"/>
	<polygon fill="#823403" points="577,393.7 581.2,393.7 580.6,390.8 579.1,388.1 576,385.9 574.5,383.4 573.2,383.4 571.4,385.2 
		570.8,385.2 570.2,383.4 571.4,382.1 571.4,380.2 569.2,379.1 567.7,378.5 565.6,377.5 564.2,375.9 562.4,375.9 559.5,376.8 
		558.4,378.1 559.5,380.2 560.5,382.1 561.8,381.6 564.8,382.1 566.4,382.1 566.9,384 569.2,385.9 569.8,387.1 571.4,388.1 
		577,392.1 	"/>
	<path fill="#E28A33" d="M509,371.5l-3.8,2.1l-1.9,2.2l3.8,2.8c0,0,2.3,0.9,2.7,0.9s2.8,0.7,2.8,0.7l0.6,1.9l3,1.2l0.5-1.2l-1.4-1.9
		l-0.4-2.8l0.4-1.6L509,371.5z"/>
	<polygon fill="#B46C34" points="516.6,377.4 515.9,378.5 516.6,380.2 517.7,382.1 519.1,382.1 520.5,380.2 520.5,378.6 
		519.2,378.2 	"/>
	<polygon fill="#BF7721" points="515.9,375.9 518.8,376.9 520.5,377.4 521.1,375.9 521.1,374 519,372.9 517.7,371.5 516.6,370.5 
		514.9,370.5 513.7,370 512.4,370 512.4,372.1 513.1,372.9 	"/>
	<path fill="#42302B" d="M469.3,417.1l2.1,2.1l3.8,1.8l2.2,1.7l3,2.7l-0.6,0.8l-2.4-1.6c0,0-1.7-2.1-1.8-1.9c-0.2,0.2-2.6,0-2.8,0
		c-0.2,0-1.8-1-1.8-1l-1.6-0.6V417.1z"/>
	<polygon fill="#492E20" points="484.4,425.7 485.6,427.8 486.6,429.1 487.1,430.9 490.1,430.2 492.7,429.8 495.3,429.6 
		497.5,430.2 499.4,430.2 502.3,429.7 506,429.1 508.3,429.1 508.3,427.8 505.8,427.8 502.9,428.3 498.6,428.3 495.7,427.6 
		493.6,427.1 491.4,427.1 488.2,426.5 485.8,425.7 484.4,425.4 	"/>
	<path fill="#F1F0ED" d="M522.9,396.8l-0.6,0.8c0,0,0.3,1,0.3,1.2s-0.3,1.7-0.3,1.7l1.2,0.6l1.6-0.6l1.5-0.7l0.6-1.4v-0.8l-1.2-0.8
		h-1.6H522.9z"/>
	<polygon fill="#BDB5AD" points="535.2,413.8 536.2,414.3 537.3,414.3 538.2,413.4 538.2,411.9 536.7,411.6 535.5,411.6 
		535.2,412.4 	"/>
	<polygon fill="#B8B1B5" points="532.6,413.5 532.9,412.6 532.9,411.2 532,410.8 530.4,410.8 530,411.6 530.2,412.9 531,413.5 	"/>
	<polygon fill="#662307" points="461,394.8 459.7,396.8 460.3,400.5 462.2,401.1 463,402.7 463,399.7 463,396.8 462.2,395.8 	"/>
	<polygon fill="#645668" points="432.8,457.7 437.8,461.2 442.2,463.6 447,465.7 450.2,465.3 447.6,464 442.4,461.7 437.5,458.2 
		433.2,455.2 429.6,451.8 425.8,447.1 422.1,442.8 419.4,439.9 419.4,441.9 420.4,444.1 423.6,448 426.2,451.3 430.2,455.3 	"/>
	<path fill="#921F04" d="M492.3,458.2l0.1,0.6l-0.1,1.7v3.1l-0.3,0.8l2,1.7l-3-1.7l-5.4-0.5l-5.1-0.8l-3.6-2.1l3.4,0.5l1.4-0.8
		c0,0,2.8-0.6,2.9-0.6s4.1-1.2,4.1-1.2l2.2-0.3L492.3,458.2z"/>
	<polygon fill="#D38830" points="495.3,370 493.1,372.9 494.2,375.2 497,375.2 500,375.2 502.3,373.7 505.2,371.5 507.6,370 
		504.2,370 500,370 	"/>
	<polygon fill="#894106" points="498.5,364.8 500,366.3 498,368 501.3,368 504.2,368 510,368.5 511.7,368.5 514.3,367.7 
		517.7,367.3 518.2,364.8 514.3,364.8 510,364.8 509.2,366.7 507.1,364.8 505.2,364.8 500.4,364.8 	"/>
	<polygon fill="none" points="538.2,370.5 545.9,370.5 549.9,372.6 551.8,375.2 549.9,375.9 548.5,376.7 547.8,373.7 545.9,372.9 
		543,372.6 	"/>
	<path fill="#2F2317" d="M188.7,546.7l-2-10.7c0,0-0.7-9,1-10.7l5.4-7.3l4.8-6.5l4.6-5l8-6.4l5.9-4.9l5.9-3.2l4.2-4l5.2-3l6.4-1.5
		l10.2-2.8l4.4-1.6l9.6-0.7l7-1.6L285,471l7.3-2.9l9.8-3l6-1.5l7.1-3.6l7.1-2.5l4.5-0.8l4.9-3.9l4.2-4.4h3.1h5.1h7.9l5.5,3.5
		l4.6,4.1l3.8,4.2l4.1,5.6v2.4l-1.1,2.9l-0.9,3.8l0.9,3.5l1.9,3.5l1.5,5.8l0.8,4.4v5.5l-0.6,4.5l-3.5,4.6l-1.6,5.8l-2.6,7.5
		l-2.4,3.9l-5.8,6.8l-9.5,7.5l-13.5,2.2c0,0-4.2,2-5.8,2.5s-5.6,4-7,3.8c-1.4-0.2-9.4,1.3-9.4,1.3l-6.6,2.1l-8.2,1.9h-6.4l-5.4,2.1
		c0,0-3.3-1-5-1s-6,0.2-7.3,0s-5.5-0.4-5.5-0.4s-3.5,0.9-4.8,1.4s-5.1,1.5-6.4,1.6s-4.4,0.6-5.1,0s-2.2-1-2.6-1s-6.9,0.1-7.2,0.5
		S238,557,238,557s-1.9,1.9-2.5,2.1s-2.9,2.5-4.9,2.9l-0.9,1.4h-2.6h-4.4l-3-0.6l-0.4-2.4l-3.1,3l-5.1,0.6c0,0-3-0.2-4.2,0
		s-3.9-1-4.5,0s-3.5,3.2-3.5,3.2l-4.6,2.5l-2.9,0.6l-1.6-0.8l0.1-2.6l-0.1-0.9l-2.1-0.8l-1.1-1v-5.2l0.8-4l1-3.8l0.9-3.6
		L188.7,546.7z"/>
	<path fill="#B62F00" d="M356.9,471l-2.1,3.4c0,0-1.2,5.9-1.2,6.4s0.9,5.5,0.9,5.5s4,3.8,4.8,4.9s4.9,4.5,4.9,4.5h3.2l2.9-2.6l1-5.1
		l-1-5.4l-2.9-6.5l-1.4-2.5l-4.8-1.9L356.9,471z"/>
	<path fill="#AD3301" d="M356.8,458.9l-1.9,1.5l-1.4,2.6c0,0,0.8,2,1,3s2.2,2.9,2.2,2.9l2.8,0.8l2.8,1.4l3.4,0.8h1l2.2-2.8v-2.5
		l-1.9-4.7l-4.7-2.9l-3.4-0.6L356.8,458.9z"/>
	<polygon fill="#8C2403" points="351,449.9 349.1,451 349.1,452.8 351.9,455.1 353.5,456.6 355.9,458.2 358.6,457.6 361.2,457.9 
		363.1,458.2 361.2,455.8 359.9,454.1 356.1,451.9 353.5,449.9 	"/>
	<path fill="#D94A00" d="M337.8,486.5l-3.4-1l-2.1,2.6c0,0-1,1.2-1.1,2s-0.2,1.9,0,3.2s0.4,5.2,0.4,5.2s3,3.4,2.9,3.8s0.8,3,1.6,3.4
		s2.9,2,2.9,2h3.6l4.1-2.5c0,0,1.8-2.2,1.9-2.8s0.6-4.9,0.6-4.9l-0.6-1l1.5-3.4v-2.9l-2.1-2.9l-2-2c0,0-2.1-0.4-2.5,0
		s-2.9,0.6-2.9,0.6L337.8,486.5z"/>
	<path fill="#FB9634" d="M293.2,497.4l3.4-4.2l4.2-2.4h5.1l4.2,0.6l3.8,2.7l3.1,3.3l2.4,5.2l1.6,4.4l-1.4,3.4c0,0-2.6,2.8-3.5,3.2
		s-5.1,2.5-5.1,2.5l-7.4,1.1h-6.1l-4.4-1l-1.9-2.6v-4.2L290,504l1.9-3.8L293.2,497.4z"/>
	<polygon fill="#F08D1B" points="269,518.5 272.6,520.5 276.9,521.5 281.6,521.5 285.5,518.5 285.5,515.9 284.8,512.5 284.4,509.4 
		282.2,507.8 282.4,505.4 282.4,502 277.2,501.3 271.8,500.5 269,501.3 267.1,504 266.1,507.8 265.4,512.6 266.4,515.8 	"/>
	<polygon fill="#C23805" points="265.4,518.2 262.2,522.4 259,526 256.1,528.5 253,530.2 249.2,530.2 245.2,528.4 243.6,526.1 
		242.9,522.8 243.6,518.9 246,515 247.1,513.2 248.6,511 251,509.4 254.1,508.8 257.4,508.8 261,509.4 263.4,510 264.1,511.6 
		264.8,514.4 	"/>
	<polygon fill="#751005" points="258.2,532.9 261,536.1 263.6,537.4 266.6,538.6 270.9,538.6 275.4,536.6 276.8,534.5 276.8,529.8 
		275.4,525.6 273.5,522.4 270.5,520.5 266.8,519.5 264.1,521.5 261.4,524.8 259.6,527.2 258.2,530.2 	"/>
	<polygon fill="#CB3600" points="219.8,514.2 222.4,511 227.2,509.4 232,511.8 234.4,516 234.9,519.5 233.6,525.5 233.6,527.9 
		231.1,529.1 228,530.2 222.8,529.6 220.5,528.1 218.6,524.9 217.8,521.5 217.8,517.2 	"/>
	<polygon fill="#A01A00" points="215.1,514.8 212.6,514.8 209,515.5 207.4,517.9 205.5,520.4 205.5,525 205.5,528 207.2,530.2 
		210.3,531.4 213.8,531.4 217.8,530.2 217.8,526.9 217.2,523.1 217.1,518.8 216.4,515.9 215.6,514.8 	"/>
	<polygon fill="#BD3506" points="198.3,542.2 201,544.8 205.5,547.2 209.2,548.3 212.9,548.3 215.6,545.3 215.6,542.9 214.2,538.6 
		210.8,536.2 209.5,533 205.5,530.2 202.5,530.2 198.3,532.2 197.2,536.6 198.3,541.8 	"/>
	<path fill="#711C09" d="M332,537l-1-1.9l0.5-3.1c0,0,2.6-3.2,3-3.6s4.2-3.8,4.6-3.9s6.4-4,6.4-4l3.2,1l-2.4,3.4
		c0,0-2.4,5.4-2.5,6.1s-1.1,2.8-1.9,3.1s-2.9,1-4.1,1.8s-3.1,1.1-3.1,1.1H332z"/>
	<path fill="#891206" d="M299.5,520.5l-4,1l-2.2,3.6l-3.2,3.9v4.6v3.4l4.1,1.6l5.4,1h4.1c0,0,4.6-2.6,5.1-2.6s3.2-3.9,3.4-4.5
		s0.6-4.5,0-4.9s-3.2-6.1-3.2-6.1l-4.1-1.5l-2.9,0.5h-1.5H299.5z"/>
	<path fill="#7D1004" d="M314.9,519.5l1,3.4l1.4,2.5l6.4,1c0,0,3.9,1.1,4.4,0s2.2-3.9,2.2-3.9s3.1-2.1,3.5-2.5s2.5-2.2,2.5-2.8
		s0.6-3.6,0-4s-4-3.8-4-3.8s-3.4-1.4-3.8-1.7s-2.6,0.2-2.8,0s-3.6,1.6-3.8,1.7s-0.1,1.3-0.8,1.6s-2.1,2.4-2.4,2.8s-1.9,1.9-2,2.8
		s-1,1.8-1,1.8L314.9,519.5z"/>
	<path fill="#631E13" d="M282.6,548.9l1.9-1.6h4c0,0,0.4,1.1,0,1.6s-0.9,2.2-0.9,2.2l-2,1.2l-3-0.5V548.9z"/>
	<path fill="#9E1A09" d="M259.9,544.9v-2.8c0,0,0.4-2.8,0-2.5s-5.1-1-5.1-1s-3.4-1.1-4.2,0s-3.4,4.6-3.4,4.6s-1,3-1.2,4
		s1.6,1.9,1.9,2.6s5.2,3.1,5.2,3.1h4.6c0,0,3.2-1.9,3.2-3.1s0-2.6,0-2.6L259.9,544.9z"/>
	<path fill="#51261F" d="M223.5,552.9l4.6,0.9c0,0,2.1-0.4,2.2-0.9s1-3.6,1-3.6l-2.6-1h-4.1l-2,1.5l0.8,2.6L223.5,552.9z"/>
	<polygon fill="#A13D2D" points="191.8,544.5 194.4,544.5 197.2,542 195.5,538.6 190.9,538.1 189.9,541.3 190.5,542.8 	"/>
	<path fill="#722D16" d="M199.2,544.5v4.6l2.1,3.8c0,0,1.6,0.8,2.1,0.9s4.2,0.5,4.4,0s1-2.7,1-2.7l-2.4-1.2l-2.4-2.6l-2.4-1.8
		L199.2,544.5z"/>
	<path fill="#D07615" d="M220,495.6l-2.2,2.1l2.2,3.6c0,0,3.6,1.2,4,1.2s5.4-4.5,5.4-4.5l3.5-2.5l2-3.4v-3.1l-3.6-1.6h-2.8l-3.6,3.2
		l-2.4,1l-2.8,1.6L220,495.6z"/>
	<path fill="#CB6B14" d="M248.9,482v3c0,0,2.9,1.9,3.2,1.8s5-1.7,5.4-1.4c0.4,0.3,4.6-1.2,5-2s1.8-3.3,1.8-3.3l-0.8-1.7l-5.2,0.9
		l-4.1,0.6l-3.2,0.1"/>
	<path fill="#E3480C" d="M444.5,415.8v5.8v4.6l0.6,4l-0.3,4h3.6l6.4,1c0,0,2.8-0.8,4-1.2s5.8-0.1,5.8-0.1l1.7-1.6l-3.2-5.2l-3.7-4.4
		l-6.2-4.7l-5.5-2.2L444.5,415.8L444.5,415.8z"/>
	<path fill="#675947" d="M409,424.1l1.1-5.5l2.1-3.6l3-3.4c0,0,2.4-2.5,2.4-2.9s0.6-3.8,0.6-3.8l0.6-7.7v-2.4l2.4-0.8h2.6v3.2
		l-0.6,3.2c0,0-1.2,1.6-1.2,2.2c0,0.6-0.9,3.9-0.9,3.9l-0.8,1.6l-1.6,1.5c0,0-1.2,1.4-1.4,2s-0.8,2.2-1.4,2.7s-2.6,2.7-2.6,2.7
		l-1.4,3.1c0,0-0.8,3.1-0.8,3.5s-1.1,2.6-1.1,2.6H409V424.1z"/>
	<path fill="#989392" d="M415.1,425.5l-0.8,2.7l-1.2,2l-0.8,3.5l1.4,3.5c0,0,1.6-1.7,1.4-2c-0.2-0.3,0.9-2.9,0.9-2.9L415.1,425.5z"
		/>
	<path fill="#3A231A" d="M418.2,425.4l1.2-2.8l1.6-1c0,0,3-2.2,2.8-2.6c-0.2-0.4,0-3.2,0-3.2l-2.2-4.1l0.5-1.6l3-0.4l2.1-2.2h-1.9
		l-2-0.9h-1.1l-1.2,0.9l-1.6,2.2l-0.4,2l-0.8,2.7l0.6,2.7l-0.6,2.2l1.2,0.4l-1.2,2V425.4z"/>
	<path fill="#9D908C" d="M400,438l0.9,2.5l2.4,0.7c0,0-0.4-3,0-3.2s0.1-3,0-3.4s0.2-4.5,0.2-4.5v-4l1.6-2.1l1.8-2.5
		c0,0-1-2.1-1.5-2.1s-1.9,0-1.9,0l-0.9,2.1l-1.2,2l-0.2,1.8l-0.4,3.7l-0.8,3.8v4.2L400,438z"/>
	<path fill="#936C57" d="M413.4,452.8l-1-3.8l-1.9-1c0,0-0.6-2.9-0.6-3.1s1.4-0.8,1.4-0.8l1.6,0.8l2,3.1c0,0,0.4,1.2,0,1.9
		S413.4,452.8,413.4,452.8z"/>
	<polygon fill="#644F3C" points="410.9,435.9 409,438 409,440.5 410.9,442.1 412.5,441.2 412.4,439 	"/>
	<polygon fill="#46382B" points="400.6,443.1 401.9,446.6 403.3,449.8 404.4,452.8 405.9,456.1 406.8,458.2 406.8,458.9 
		405.2,457.7 404.4,455.8 403.3,452.8 402.6,449.9 401.1,448 400.6,444.9 	"/>
	<path fill="#5E2111" d="M451,482.6c-0.4-0.4-0.8-3-0.8-3l1.4-2l1-1.4h3.4h3.3v2.6c0,0,0.6,2.2,1.3,2.2s2.6,0.8,3,0.8
		s3.1,0.8,3.1,0.8l-0.6,1.1l-1.4,0.8h-3h-7.1l-2.4-0.8L451,482.6z"/>
	<path fill="#3B0500" d="M510,479l2.8-2.8l6.1-1.1h4l2.2,1.1l3.1-1.1h4.2c0,0,0.8-0.1,1.1,1.1s0.5,3.5,0.5,3.5l-1.6,1.2
		c0,0-3.9,0.1-4.2,0s-3-0.9-3.4-0.6s-0.5,1.4-1.5,1.6s-2.4-0.5-4,0s-5.6,0.1-5.6,0.1l-2.4-1.7L510,479z"/>
	<polygon fill="#8D8280" points="386,459.9 385.2,461 385.2,462.4 383.4,463.2 381.5,463.2 381.5,464.4 381.5,466.2 383.1,466.2 
		386.5,466.2 388.5,465.7 387.9,462.4 387.1,460.6 	"/>
	<polygon fill="#3C180E" points="467.6,491.6 465,490.9 461.8,489.8 460.1,490.7 459.3,493 460,494.8 461.8,497 464.9,497 
		466.8,495 	"/>
	<path fill="#231509" d="M404.9,516.6l6.6-3.2l4.5-3.1l0.7-0.5l7.2-5.7l1.7-1.6l3.4-3.3c0,0,4-2,4.4-2.1s2.2-2.2,2.2-2.2v0.9
		l-6.2,4.2l-9.1,8.2l-6.7,4.8l-3.8,2.2L404.9,516.6z"/>
	<polygon fill="#372A23" points="403.5,511.5 404.9,510.1 407.1,508.1 407.1,505.8 405.9,507.5 404.9,509.4 403.5,510 402.6,511.5 	
		"/>
	<path fill="#19100D" d="M408.6,503.8l3.5-1.9l1.4-2.2c0,0,0.4,2.2,0,2.8s-0.8,2.4-0.8,2.4l2.1-2.6l1.1-2.6l1.2-1.8l2.2-0.9l2.3-2.2
		l2.8-1.4l2.2-0.8l1.8-1.5l-1.4-0.8l-2,0.9l-1.3-0.9v-1.1c0,0-0.3,0.1-0.8,0s-1.8-0.1-2,0.5s-0.8,2-0.8,2l-1.6,0.5
		c0,0-1.1-0.1-1.4,0.1s-0.5,0.4-0.5,1s0.1,0.8-0.1,1.4s-0.2,0.6-0.2,0.6s-1-0.4-1.4,0.2S413,497,413,497l-0.2,0.7l-0.1,0.9l-0.2,0.6
		c0,0-0.5,0.4-1.2,1s-1.5,0.5-1.8,1.2C409.1,502,408.6,503.8,408.6,503.8z"/>
	<path fill="#231509" d="M420.2,502l2.1-3.1l3-1.9l3.2-2.6h-1.1l-3,1.2l-2.6,2.6l-2.3,2.1c0,0-1.7,1.6-1.8,1.8s-2.1,1.4-1.6,1.9
		s0.6,2.9,0.6,2.9s2.8-0.8,2.8-1c0-0.2,2.8-3.1,2.8-3.1s1.5-1.8,1.6-2.1c0.2-0.3,5.4-3.6,5.4-3.6l2.2-1.3l2-2.2l3.1-2.1v-1.5v-1
		l-1.8,2l-2,2l-1.5,0.6l-1.1,2.2l-2.5,1.4l-5.4,3.4L420.2,502z"/>
	<path fill="#3A2B25" d="M413.1,508.6h1.1h1.7l-0.5-1.9l-0.9-0.5l-1.4,0.5l-1.8,1.9c0,0-1.4,2.9-1.8,2.9s1.6,0,1.6,0l0.9-1.4
		L413.1,508.6z"/>
	<path fill="#201C12" d="M427.8,504.8l-1.5,1l0.7,1l2.9-1.1l2.6-0.9l0.1,1.5l-3.4,1.4c0,0-2.5,1.2-3,1.8s-3.1,2.1-3.1,2.1l-4.6,2.1
		l0.9,1h1.7l4.1-2.1l5.2-3.1l4.3-1.6c0,0,1.2-2,1.8-2.1s4.6-2.8,4.6-2.8l3-1.7l0.8-0.8l-2.1-0.4v-1.5l2.1-0.2v-2.8l-1.6,1.3
		l-3.6,0.8l-3.1,0.6l-1.8,1.9l-2.1,2l-3,1.8L427.8,504.8z"/>
	<path fill="#861F08" d="M365.1,517.2l-1.6-1.1c0,0-2-1.6-2.2-2.4s-0.8-3.6-0.8-3.6l0.8-3.4l3-1l2.2,2l1.7,1.7l-1.1,2.1l-1,3.1
		L365.1,517.2z"/>
	<path fill="#1A1009" d="M404.4,415.8l6.8-5.8l3.6-6.6l-0.2-6.1l-3.5,3.8c0,0-39.3,37.9-66.5,44.9H342l5.3,1.5l4.5,0.5l3.7,1.9
		l3.8,1.5h3l8.8-3.3l13.9-8.1l9-7.7l6.6-10.6"/>
	<path fill="#201510" d="M567.4,448.4l1-0.3c0,0,1.8,0.2,2.3,0.1s2.7,0,2.7,0l1.2,0.5l-1,2.7l-2,1.7l-2.5,0.8h-0.9l0-0.8v-2.1
		l-0.5-1.7L567.4,448.4z"/>
	<path fill="#803F0B" d="M533.3,459H530h-4.1l-3.4,0.5l-2.3,1.3c0,0,0.8,2.2,1.5,2.4c0.7,0.3,2.5,0.7,3,1.3s1.5,1.7,1.8,1.8
		c0.3,0,2.3,0.8,3.3,0.8s2.8-0.5,3.3-0.2c0.5,0.3,1.9,1,2.1,1s1.9,0.1,2.3,0s2.5-0.4,2.6-0.5s0.9-0.6,1.1-1.4s0.5-1.9,0.5-2
		s-0.6-2.5-0.6-2.5s-1.2-0.9-1.7-1s-2.5-0.7-3.3-0.7S533.3,459,533.3,459z"/>
	<polygon fill="#FFBCC1" points="250,520.5 250,523.1 251.5,525.2 252.5,525.2 254.1,523.1 253.3,520.5 252.1,520.5 	"/>
	<path fill="#765420" d="M197,568.3l-3.3,1.6l-2.4,0.5l-1.6-0.8l0.1-3l-2-1.2l-1.3-1.1l0.4-5.6l0.6-4.4l1.5-3.1l0.2-2.8l-0.2-0.1
		l3,2l1.8,3.1l1.2,3.5l1.6,2.2c0,0,1.2,1.2,0.9,2.2s-0.5,2.9-0.5,2.9l0.6,1.6l0.6,1.7"/>
	<path fill="#C08A5A" d="M445.6,395.5l-2.2,0.9l-2.7,2.4v1c0,0,2.2,0.7,2.5,0.6c0.3-0.1,1.9,0.3,1.9,0.3s0.8-1.6,1.2-1.9
		s1.1-0.9,1.3-1.6s0-1.8,0-1.8l-1.6,0.2L445.6,395.5z"/>
	<path fill="#C78145" d="M428.2,405.4c0,0-0.2-1.8,0-1.9s-1.4-2.1-1.7-1.8s-1.1,1.3-1.2,1.6s-0.6,1.4-0.4,1.6s1.7,0.9,1.7,0.9
		L428.2,405.4z"/>
	<path fill="#1A1311" d="M269.9,492.4h-3.2c0,0-1.6,0.6-1.7,0.8s-0.7,1.8-0.8,2.3s0.4,2,0.6,2.2s1.7,0.8,1.7,0.8h2.4
		c0,0,2.8,0.6,3,0.4s1.4-0.8,1.9-1.2s1.2-2.1,1.2-2.1s-1.7-2.6-1.9-2.7s-2.4-0.6-2.4-0.6L269.9,492.4L269.9,492.4z"/>
	<path fill="#241409" d="M250.1,496.4l1.5,1.3c0,0,1.7,0.4,2.2,0.4s1.6,0.1,2.1-0.3s2.2-1.6,2.6-1.8s1.4-1.1,1.8-1.9
		s1.3-2.1,1.3-2.4s-0.1-0.8-1.1-1s-1.4-0.2-3.4-0.4s-3.2-0.6-4.1-0.4s-2.4,0.9-2.6,1.4s-0.4,1.3-0.5,2s0.2,1.2,0,1.9
		S250.1,496.4,250.1,496.4z"/>
	<path fill="#44352B" d="M253.6,494.6l0.9,0.4h2.1c0,0,0.4-0.5,0.6-1c0.2-0.5,0-1.8,0-1.9s-1.5-0.5-1.8-0.5c-0.3,0-1.7-0.1-1.9,0.5
		s0,1.7,0,1.7L253.6,494.6L253.6,494.6z"/>
	<path fill="#3A2212" d="M513.7,475.1c-0.7,0.3-3.7-0.5-3.7-0.5s-1.9-0.1-2.4,0.3s-1.1,1.6-1.1,2s0,1.8,0,1.8s1,0.4,1.8,0.4
		s1.7-0.1,1.7-0.1l4.5-3.1L513.7,475.1z"/>
	<polygon fill="#3E2A1C" points="426.5,421.6 424.8,422.7 424.8,425.4 425.6,427.6 426.5,428.2 427.2,427.1 427.2,425.5 
		427.2,423.6 	"/>
	<path fill="#3F2417" d="M433.5,416.5l-1.9,0.6l0.9,1.5c0,0,0.8,1,0.9,1.6s-0.4,2.8,0,3.5s1.1,3.5,1.1,3.5l2.1,1.1
		c0,0,1.2-1.4,1.1-1.7s-1.1-0.3-1.1-0.3s-0.6-1.7-0.8-2.6s-0.4-2-0.4-2v-2.1v-0.9l-0.7-1.5L433.5,416.5z"/>
	<path fill="#E2DEE1" d="M530,401.1l0.2,0.3l1.2,1.6c0,0,2.8,0.3,2.6,0.6c-0.1,0.3,0,2.8,0,2.8s1.9-0.9,3.5-0.7s3,0,3.4-0.3
		s2.5-1.1,2.5-1.1l0.6-2.4c0.4-0.2,1.8-0.2,1.8-0.2l2,0.1c0,0,0.8,0.1,1.5-0.2s2.3-1.1,2.3-1.1s0.1-0.6,0.4,0.6s-0.1,1.2,0.4,1.8
		s1.4,1.8,1.6,2s2.1-0.1,2.1,0.4s-0.4,1.2-0.8,1.4s-1.6,0.7-1.8,0.8s-0.7-0.4-1.1,0.4s-0.9,1.9-0.9,1.9s0.8,0.2,1.2,0.4s1,0,1.8,0
		s1.4-0.2,1.7-0.3s0.4-0.1,1.2,0.1s2.5,0.3,2.5,0.3l0.5-0.3v-1.2c0,0-0.5-1.3-0.5-1.3s-0.7-1-0.8-1.2c-0.1-0.2-1.2,0-1.2,0l-1-0.3
		c0,0-0.5-0.2-0.1-1.1s0.8-1.5,0.8-1.5l0.3-1.8l-0.3-0.6l-0.7-0.3c0,0-1.6-1.2-2.2-0.9s-0.7,0.5-1.1,0.6c-0.4,0.1-0.9,0.6-0.9,0.6
		s-0.8-0.7-0.8-1.3s-0.1-1-0.1-1s-0.6-1.3-1.1-1.2c-0.5,0.1-1.9,0.7-2.1,0.8s-1.1,0.8-1.1,1s-0.2,1.1-0.2,1.1h-1.1
		c0,0-1.3,0-1.3-0.2s0.3-1.3,0-1.3s-1.4-0.6-1.4-0.6l-1.2-0.8c0,0-1-0.5-1.2-0.8s-0.6-1-0.9-0.8s-1,0.6-1.4,0s0.1-0.8-0.9-0.9
		s-3,0-3,0s-0.6-0.2-1.1-0.1s-2.7-0.2-2.7-0.2s-0.1,1.4,0.1,1.7s-0.4,1.8-0.4,1.8s-0.8-0.2-1.1,0s-0.3,0.9,0,1.6
		S530,401.1,530,401.1z"/>
	<path fill="#DED6D4" d="M536.7,398.8c0,0-0.8,1.1-0.8,1.4s0.1,1.7,0.4,1.8s1.4,0.7,1.6,0.6c0.2-0.2,0.9-0.9,1.1-1.1
		s0.6-1.5,0.6-1.5l-1.4-2.1l-1.5,0.5L536.7,398.8L536.7,398.8z"/>
	<path fill="#C4B0CC" d="M541.2,401.4c0,0-0.8,0.5-1,0.7s0.1,1.1,0,1.4s1,0.5,1,0.4s1.2-0.8,1.2-0.8V402L541.2,401.4z"/>
	<path fill="#D9D0DA" d="M550.4,398.8h-0.5c0,0-1.3,0.2-1.3,0.4s0,1.2,0,1.2s0.6,0.7,0.9,0.6s0.9-0.6,0.9-0.6V398.8z"/>
	<path fill="#DAC6BA" d="M555.4,401.4h-1.7l-0.4,0.9l0.6,1.6h0.8h1.2c0,0-0.2-0.8,0-0.9S555.4,401.4,555.4,401.4z"/>
	<path fill="#1D1715" d="M239.3,379.8l2.3-1.3l2.7-2.3c0,0,3.8-0.8,4.3,0s4.7-2,4.7-2l2.5-2.3l1.5-1.3l6,1.8l8.2,4.5
		c0,0,3,2,2.3,1.7s-5.1,1.8-5.1,1.8s-6.2,1.4-7.4,1.8s-5.7,0-5.7,0s-5.7-0.7-6.7,0.1c-1,0.9-2.8,2-2.8,2l-3.2-0.6l-1.8-1.4l-1.9-0.1
		L239.3,379.8L239.3,379.8z"/>
	<path fill="#772B09" d="M253.4,283c0,0-22.6,20.8-24.8,24.4l-4,6.9l-0.6,2.1l0.9,1.9l2.5,1l5.1,2.8l5.4,0.9h3.9h4.9h6.1
		c0,0,9.2-3.1,9.6-3.2s10.6-5,10.6-5s5.8-2.5,6.1-2.8s6.5-2.6,6.5-2.6l5.9-3.1l4.8-4.1l2-2.6v-1.8l-4.4-3.5l-4.1-2.8l-3.4-3.6
		l-4-3.4l-2.2-1.6l3.5-1.2l1.8,3l3.4,3.1c0,0,2.4,1.6,3.1,2.2s3.1,2.6,3.5,3.1s3.5,3.6,3.6,4s1.6,3.8,1.6,3.8s-1.9,2.9-2.1,3.4
		s-4.4,4-4.4,4s-24.8,15-35.1,17c0,0-2.4,2-9.6,2.2l-6.2-1.4h-7l-6.8-1l-5.4,0.1c0,0-4.5-1-5.8-5l1-3.4
		C219.2,317,240.4,289.9,253.4,283z"/>
	<path fill="#AF8454" d="M277,306.4l-3.5,1.8l-3.2,2.6c0,0-0.4,2.2,0,2.2s4-0.6,4-0.6l2.8-0.5l3.6-1.6c0,0,1.2,0.2,1.2-0.6
		s-1.2-2.2-1.2-2.2L277,306.4z"/>
	<path fill="#AC6510" d="M419.8,385.4l-7-4.2l-5.8-4.2l-4.8-4.8L401,371l3.1-3.1l2.1-3.2l1.6-3.7l1.8-3.7l1.8-2.1l4.3-1.1l3-1.1h5.9
		l3.4,0.5l3.4,1.2l1.9-0.1l2.1-0.6c0,0-1-0.9-1.5-1.1s-4.6-0.3-4.6-0.3s-2.1-1.2-2.7-1.2c-0.6,0-4.5,0-4.8,0s-4.2,0-4.2,0l-5.6,0.5
		l-3.8,2.1l-3.8,3.5l-1.9,3.6l-0.9,1.8l-2.2,1.9l-0.8,3.5l-1.2,2l1.2,2.3l2.8,2l4,3.3l4,2.3l6,4.2l1.9,1h1L419.8,385.4z"/>
	<path fill="#7C3203" d="M382,360.6l3.3-3.6l2.8-3.5l4.1-5.2l1.4-3.1l1.9-1.4l4.8-0.8l5.9-0.4l8-1l4.2,0.3l7.6,0.7l3.3,0.2l6.5,0.2
		l2,0.5l3.4,1l3.5,1.5l-1.4,0.4l-4.9-0.3l1.3,1.2l3.9,1.5l3,1.9l1.4,3.4l-0.3,1.2l-2.9-2.2l-6.1-3.1l-8-1.9l-6.9-1.5l-2.2,0.4
		l-6.2,0.2l-4.2,0.8l-5.1,0.6l-1.7,1.8l-2.5,2.7l-2.5,3.4l-1.6,3.8l-1.5,2.5l-2.7,2.7l-0.6,1.4l0.1,2.5l1.4,2.2c0,0,1.8,4.1,1.9,4.1
		s2.9,1.8,3.6,2.2s3.4,2.4,4.1,2.8s3.9,1.9,3.9,2.1s4.2,2.4,4.2,2.4l1.3,1.4c0,0-0.3,1.2-0.8,1.2s-7.8-0.4-7.8-0.4l-3.4,1
		c0,0-4.4,0-4.6,0s-1.3-1.6-1.3-1.6l3.8-2.5c0,0-0.6-2.2-0.6-2.4s-2.5-2.5-2.7-2.7s-3.7-2.9-3.7-2.9l-5.3-3.6l-3.6-3.2
		c0,0-2.3-1.5-2.4-1.7s-2.4-3.4-2.4-3.4v-2.2l2.2-1.9L382,360.6z"/>
	<path fill="#8A5111" d="M422.2,369.5l-1.2,0.6v1.6c0,0,1.6,1.6,1.8,1.6s1.8,1.4,2,1.5s2.1,1.4,2.1,1.4l1.4,1.1l1-1.5l-2.4-2.4
		l-2.6-2.1L422.2,369.5z"/>
	<path fill="#684E3A" d="M354.2,358h2.8l5.1,2.1l1.5,1.1l1.9-1.1l1.3-2.1l-3.6-4.4l-2.1,0.6l-2.4,1.8l-1.6-1.8l-6.1-0.6l-0.8,2.5
		l-2.9-4.5l2.4-4.7h-2.6l-2.5,5.5l5.2,7.7l37.5,30.3l7.2,3.6c0,0,3.5-0.5,4,0s6.2,0.8,6.2,0.8v-1.5l-6.2-2.9l-8.5-7.6l-4.9-2.6
		c0,0-5.2-4.9-6.9-5.1c-1.6-0.2-10.5-8-10.5-8l-6.6-4.6c0,0-2.4-1.5-3.2-1.9S354.2,358,354.2,358z"/>
	<path fill="#EFD07A" d="M342,445.9l21.1-8.8l11.6-6.5l12.3-9l9-7.3l2.6-3l3-2l2.2-2.8l-3.2-1.9c0,0-1-0.8-2.6-1s-3.4,0-5,1
		s-6.4,4.7-6.4,4.7l-2.5,0.4l-4-3.1c0,0-7.8-6.3-8.2-6.6s-7.8-7.2-7.8-7.2l-5.6-4.1l-7.2-2.2c0,0-6.2,2.2-8.4,2.9
		s-13.6,7.8-14.8,7.9s-5.8,0.8-5.8,0.8s-2.1-1.9-3.2-2s-6.5,0-6.5,0l4.2,3.2c0,0,2.4,2.6,2.6,3.9s-0.6,2.6,0.6,5.5s2.9,9.4,3.1,10.1
		s4.8,6.4,4.9,6.7c0.1,0.4,1.6,6.8,1.6,6.8s2.5,2.2-2.1,2s-6.9-2-6.9-2l-3.1,1.6c0,0,4.8,2.4,5.4,3.2s5.2,4.4,6,4.1s8,0.9,8,0.9
		l3.4,2L342,445.9z"/>
	<path fill="#A06306" d="M366.1,395.7l-1.2,0.3l0.7,1.9l3.6,3.8l6.5,5.8l5,3.4v2.1l-2.3-0.4l-1.6-1.3l-11.1-9.2l-3.1-3.4l-1.7-1.6
		c0,0-1.6-1-2-1.1s-1.1,0.8-1.1,0.8l-2.1,0.8c0,0-3.2-0.2-3.4,0s-1.8-0.9-1.8-0.9l-1.7-0.6l-0.3,0.9l1.4,1.9c0,0-1.4,0.8-1.6,0.8
		s-1.9,0.9-1.9,0.9s-0.6,0.9-0.6,1.3s0.8,1.3,0.8,1.3s-2.5,0.6-2.7,0.6s-0.8-0.6-0.8-1.2s-0.9-1.2-0.9-1.2h-1.5c0,0-2.6,2.1-2.9,2.4
		s-4.1,2.1-4.3,2.1s-2.6,1.2-2.8,1.3s-0.7,2.7-0.7,2.7s1.1,5.2,1.3,5.3s1,0.1,1.2-0.1s1.6-3.1,1.6-3.1l4.9-2.6l6-3.3l2.7-2.6
		l3.3-1.8l4.9-0.5l4.1,0.6c0,0,2.3,0.8,2.9,0.9s2.2,1.5,2.5,1.9s2.9,2.4,2.9,2.4l2.6,2.2c0,0,2.1,1.5,2.6,1.9s1.8,2.1,1.8,2.4
		s-0.8,1-0.8,1l-1.4-0.5c0,0-2.5-2.4-2.7-2.6s-1.9-2.1-1.9-2.1l-1-1l-2.9-1.6l-1.4-0.6l0.9,1.9c0,0,1.9,1.1,2.1,1.2s1.6,1.6,1.8,1.7
		s2.3,2.4,2.3,2.4l2.7,1.4l-0.6,2.1l-2.8-0.2l-0.4-0.7l-2.6-2.2l-2-1l-1.2-2.5l-3.4-3l-2-3.5l-3.1,0.5c0,0-3.9,4.2-5.5,5
		s-6.1,2.9-6.6,3s-3.6,3.2-4.6,4.1s-1.5,4-1.5,4s1.6,3.4,2.2,4s2.1,6.2,2.1,7c0,0.8-0.8,1.6-0.8,1.6l-0.8,1.1l-2.1-2.1
		c0,0-1.5-2.6-1.7-2.8s-3.3-3.3-3.2-3.8s-0.1-4.5-0.1-4.5l-3.1-2.2c0,0,0.9,3.1,1.1,3.3s3.2,6.7,3.2,6.7l2.1,3.6l-0.3,1.7l1.2,1.1
		l-1.6,1.4l-1.6-1.8l-2-2.8l-1.1,0.1l-1.7-6.2l-2-2.7l-2.5-3.9l-1.8-5.1l-1.4-5.9l2.1-1.8l1.8-3.4c0,0,0.8-1.2,1-1.2
		s5.1,0.2,5.6,0.1s1.4-0.4,1.5-0.8s0.9-1.6,0.9-1.6l1.1-0.9l2.4,0.4l2.6-1.3c0,0,2.5-1.7,2.6-1.9s0.6-1.3,0.5-1.5s-1.2-2.5-1.2-2.5
		l3.2-2.3l3.7-2.1l2.5,0.4c0,0,0.2,1.1,0.4,1.6s1.2,1.8,1.2,1.8s2.1-0.6,2.3-0.7s1.9-1,1.9-1l2.2,0l1.5,2.1c0,0,0.4,1.6,0.8,1.8
		s2.6,0.8,2.6,0.8l1.2,0.7L366.1,395.7z"/>
	<path fill="#B39343" d="M187.5,404.1l4.8-4.3l2-4.9l-1.2-2.3l1.2-3.5l2-1.1l5.8,1l3.9,1.9l1.4,5.2v6.1l2,1.9l2.4,3.8
		c0,0,0.9,3.6,1.9,3.9s3.1,1.9,3.1,1.9s2.6-1,3.6-1.8s2-5.5,2-5.5l0.9-3.6v-1l-5.1-3.6l-5.1-4.1l-0.5-3.9l0.1-4.1l-3-0.9h-3.1
		l-4.6-3.2l-0.9-3.5h-3.2l-3.4,1.8l-3.5,4l-1,2.5l-3.6,0.6l-4.8,0.6l-1.8,4.1l-1.1,2.6v3l1.5,4.5l1.2,2.1l2.4,3.2l2-0.6L187.5,404.1
		z"/>
	<path fill="#8A6E25" d="M141.9,362.5l2.8,1.2l1.9-0.6l0.6-3.2l-1.6-2.6l0.5-3l2.6-1.5l7.4-3.2l4.5-3l1.8-2.9c0,0,1.9-1.4,2.2-1.5
		s1.6,1.4,2,1.5s2.1-1,2.1-1l1.4-2.5v-4.5l-1.8-5.2c0,0-1-1.2-1.5-2s-1.4-3.4-1.4-3.4h-2l-2.8,2.6l-0.9,4.2l-1,3.4l-5.6,1.2
		l-3.6,5.2l-4,1.8c0,0-2.4-4.5-2.5-4.9s-1.9-3.9-2.1-4.1s-1-5-1-5s-1.5,1.5-2.1,2.6s-2.2,5.9-3.2,6.6s-4.1,2.8-4.1,2.8l-1.6-1.5
		c0,0,0.9-5.4,0.9-5.5s1.1-3.5,1.1-3.5l-0.9-1l-2.8,3.4l-0.9,5.1c0,0,0.1,4.2,0,4.8s0,4,0,4s-0.2,1.9-1.6,2.9s-3.4,4.1-3.4,4.1
		l-0.9,4.7l-1.1,0.9l1.9,0.8l2.9-2.5l2.6-1.4l3.9-2.4l7.6-3.5c0,0,1.2,1.1,1.6,1.4s2,2.1,2,2.1L141.9,362.5z"/>
	<path fill="#95762C" d="M180.5,348.1l4.8,3.6l3.8,1.6l4.2,1.5h3.9l1.1-2.4c0,0,0.1-4.8,0-5.1s1.1-4.6,1.1-4.6v-2.5h-0.9L197,343
		c0,0-1.5-1.2-3-0.4s-0.8,2.5-0.8,2.5l-0.2,2.4l-3.3-1.8l0.2-2.1l0.8-2.4l0.1-2.5c0,0-0.6-0.6-1.1-0.6c-0.5,0-3.6,1.6-3.6,1.6
		l-3.1,2.5c0,0-1.4,0.9-1.6,2.1s-0.4,2.1-0.4,2.1L180.5,348.1z"/>
	<path fill="#A99042" d="M184,327.6l6.5-6.8c0,0,11.5-12.6,13.2-13.4l1.5-1.4v-5.4l4.2-4.8l2.2-2l-1.9-1.2h-2.2c0,0-3.5,3.9-3.9,4
		s-9.5,5.4-9.8,7.4s1.1,2.4,1.1,2.4l-1,3.3l-3.4,3.3l-2.8,4l-4,4.5v2.8V327.6z"/>
	<path fill="#A27A20" d="M364.8,272.6c0,0-3.8,1.5-5.2,1.6s-2.9-0.4-3.2,0s-1.6,3.9-1.6,4.2s5.1,3.8,5.1,3.8l6.2,1.8
		c0,0,0.8,2.9,0.8,3.2s-1.2,2-1.2,2s5.9,2.6,6.5,3s2.8,1.6,3.5,0.8s4.5-3.4,4.5-3.4s0-1.5,2-0.8s5.6,2.9,6,3.2s4.4,1.2,4.4,1.2
		s2.6,1.3,4.4,1.4s5.9,0.1,6.2,0s1.4,0.1,1.4,0.1s1.4-1.8,1.4-2.7s0-3.2,0-3.2l-7.8-4.2C397.9,284.6,380,272.9,364.8,272.6z"/>
	<path fill="#471C09" d="M467.1,349.9c0,0-0.5,4.4,0,4.9s-0.7,2.2-1,2.6s-6,5.1-6,5.1l5.1,1.1l0.9-2.6c0,0,2.2-2,2.2-2.8
		c-0.1-0.8-0.4-4-0.4-4l2.4,2.5h1.7c0,0,2.1,1.2,2.2,1.6s2.5,4.1,2.5,4.1h3.5l2.1,2.3l0.7,0.7l2.6-1.9l-1.2-3.5l-4-3.6
		c0,0-3.5-2.2-4-2.3s-3.5-2-3.5-2l-1.8-2.4l-1.9,1l-1.6-2.1l-2.5-1.9l-2.1,0.6v1.4l1.4,1.6l1,1.9l0.8,1.8L467.1,349.9z"/>
	<path fill="#8D160E" d="M32.6,463.6l-1.6-1.4l0.8-2.5l2.9-1.1l3.9,0.6l3.5,1.9h2.5L48,460l2.1,0.4v-1.8v-2.1l1.6-1.5l1.5,2.1
		l-1.8,1.6v2.9l-1.1,2l-2.8,1c0,0-1.6-0.4-2,0s-3.5,0-3.5,0s-0.8-0.4-0.9,0.2c-0.1,0.6-1.4,2-1.8,2.1s-1.4,0.9-1.8,0.6
		s-3.8-1.6-3.8-1.6L32.6,463.6z"/>
	<path fill="#9B5D07" d="M247.5,471l2.5,0.8l2.1-0.8v-4.8l3.3-7.9l1.9-4.2v-7.5l3-2.5v-2.8l2.5-4.1l2.6,1.9h2.1v4.1v3.4l2.2,3.3h3
		l2.7-3.3l1.3-4.4l0.7-2.1l2.4,4.8v8l1.6,6.1l2-4.4c0,0-0.8-4.2-1-4.6s1-5.8,1-5.8V435l-2-1.5h-3l-4.6,2.4h-4.2l-4.3-1.1l-3.8-1.2
		H260l-2.7,2.4l-1.9,3.1l-3.3,4.1v3.4l-2.1,11.7l-1.1,4.8L247.5,471z"/>
	<polygon fill="#A3823C" points="316.2,280.8 324.5,287.2 331,291.8 328.5,292.5 322.5,291.8 318.2,290 316.2,288.3 312.7,287.8 
		310.3,286.7 312,284.7 314,283.7 313.8,280.8 	"/>
	<polygon fill="#7C612E" points="323.7,283.7 325.5,284.8 327,284.3 328.2,283.7 326.7,281.8 323.7,278.8 320.7,278.8 319.3,280.8 
		320.7,281.8 	"/>
	<polygon fill="#604111" points="320.7,268.3 319.3,269.5 320.7,271 323.8,270.3 327.3,269.7 332.3,269.7 334.3,268.3 332.2,267.3 
		328.2,267.3 323.8,267.3 	"/>
	<polygon fill="#77570E" points="302.3,269.2 306.7,269.2 310.3,269.2 311.2,267.3 309.5,265.5 308,264.8 302.3,263.8 296.5,265.7 
		290.7,266.5 291.3,269.2 295.7,269.2 299.5,269.2 	"/>
	<polygon fill="#826019" points="303.3,274 304.2,276.8 303.3,277.8 300.6,278.8 297.8,277.6 294.3,276.4 291.3,274 287.5,274 
		280.3,272.6 272,273.7 266.8,274 259.8,273.8 259.4,271.8 262.8,271 266.3,271 271.2,271 275.3,269.2 278.8,269.2 284,269.2 
		294,271 301,271.7 	"/>
	<polygon fill="#744D16" points="270.1,259.3 278.3,261.2 288.8,261.2 293.3,262.8 297.5,262.8 303,262.8 311.2,262 321.8,263.8 
		328.2,265.3 323.8,262.3 314.8,260 307.2,258 301.8,257.2 295.8,257.2 291.3,257.2 283.8,257.2 276,258.2 270.1,258.3 	"/>
	<polygon fill="#593603" points="260.5,269.2 262.8,268 266.7,268 268,267.3 267.2,265.3 261.8,265.3 258.1,265.3 256.2,267.2 
		259.4,268.3 	"/>
	<path fill="#745111" d="M224.2,284.8l5.7-1.1l3.7-2l4.3-4l5-2.2l2.5-1.5l-0.7-3h-3.2l-4,1.6l-2,1.4l-0.8-1.4l-0.9-3.5l-1.5-1.8
		l-2.8-0.1l-1,1.9l1.2,0.8l0.2,1h-1.7l-0.7,1.6l-0.8,2.4l0.8,1h-2.2l0.7,2.8c0,0,1.3,1.8,0.5,2s-3,2.9-3,2.9l-1.3,1.8L224.2,284.8z"
		/>
	<polygon fill="#543122" points="223.8,280.8 221.5,280.8 218.2,281.8 214.7,283.7 214.7,281.8 218.2,280 218.2,277.8 216.2,275.5 
		214.7,274 215.3,272.6 218.2,274 221.7,276.4 223.8,277.6 225.7,277.8 226.4,279.5 225.3,281.8 	"/>
	<polygon fill="#85621F" points="220,298.1 222.8,298.1 225.3,298.1 227.5,294.8 230.7,291.7 233.8,287.8 237.3,284.8 238.7,283.7 
		242,281.8 244.3,280.8 243.3,278.8 238.2,281.8 233.8,284.8 229.8,286.7 227.5,289.7 223.2,293.3 220.5,296.2 	"/>
	<polygon fill="#53341D" points="252.5,274 249.5,275.2 249.5,277.6 251,278.2 253.3,276.4 253.3,274 	"/>
	<path fill="#6D3008" d="M139.8,316.2h4.8l5,1.5l6.8-0.8l5.3-0.8c0,0,4.2-3.2,4.5-3.2c0.3,0,7.3-7,7.3-7l5-4.9l4.5-5l4.3-2.7l6-5
		l3.7-3h-2.3l-2.8,1.8l-7,4.3l-3.3,4.5l-4.2,3l-4.5,3.7l-7.8,4.6l-3.7,1.4l-4.3-0.5l-4.3-0.9l-1.8,0.9c0,0-1.2-0.9-1-2s0.2-3,0.2-3
		l1.8-2.7l-1.3,0.9l-2,1.9l-3.2,2.9l-3.3,3.3l-2.3,3.3V316.2z"/>
	<path fill="#6C4E05" d="M86.5,362.5l2.3-1.8l1-3.2l1.5-1l1,0.8l1.7-0.8v1.3v3.2l1.5,1.5c0,0,1.2-0.3,1.3-0.8c0.2-0.5,1-2.2,1-2.2
		v-3.7l1-1.6l2.2-3.6l3.5-2.5l2-1.7v-2.8l2.5-3l2.2-1.5l3.3-1l1-2.8l3.8-4.7l3.4-4.2l3.5-3.3v-2.5l-3,1.2l-4.7,5.8l-3,2.5l-2.8,3.7
		l-2,1.7l-0.8-1l-0.3-2l-0.8-1.2l-2.3-0.2l-2.3,3.3l-2,3.6v1.5l-2,0.2h-2.5l-3.2-0.5l-0.8,3.3l-0.5,1.7l-0.7,1.8l-2.8-1.8l-2.2,2.8
		l-1.8,2.7l-1.3,2.7v2.8l1.2,3.8L86.5,362.5z"/>
	<polygon fill="#351006" points="102.5,325 106.7,325 110,322.8 113.8,318.4 117.8,313.8 120.2,311 122.8,308.2 124.8,304.7 
		129.7,300.5 133.5,298.1 135.8,295.5 138.5,293.5 140.7,291.7 143.5,288.5 145.3,285.5 144.6,285.5 141,286.3 139.8,287.5 
		138.2,288.5 139,289.5 139.8,290.2 138.5,292.6 133.2,296.3 125.3,302.8 111.3,317.7 109.3,317.7 109.3,315 107.3,314.5 
		105.2,315.8 103.5,319.2 101.2,323.2 	"/>
	<polygon fill="#4B270F" points="133,310.1 135.7,307.4 137.7,305.2 139.8,303.5 138,303.5 136.4,303.5 133.7,305.2 132,307.4 	"/>
	<path fill="#826920" d="M120.5,394.8l4.5-1.5h2.5l0.8,2.7c0,0,1.7,1.8,2,1.3s2.3-2.8,2.3-2.8l2.3-1.2l3-0.7h4c0,0,1.3-0.7,1.7-1.2
		c0.3-0.5,1-3.2,1-3.2v-1.8l3.5-1.3l2.2-1.1l-1.7-2.1H146l-2.2,3l-4.5,0.7l-2.5,2l-1.4-0.5l-1.1-3.1h-3.8l-4.3,2.1l-2.5,2.8l-2.5,2
		L120.5,394.8z"/>
	<path fill="#AB8E4A" d="M157.2,396h2.8l2.7,2.5c0,0,1.7,0.3,2.2,0s2-2.8,2-2.8s1-2.6,0-3.1s-4-3-4-3l-2.2-0.7l-2,0.7l-1.5,4.1V396z
		"/>
	<polygon fill="#AB8E4A" points="161.2,387.8 163,386.3 164.7,387.1 167.3,389 168.8,390.8 168.8,392 166.8,392.7 165,389.7 
		162.2,389 	"/>
	<polygon fill="#AB8E4A" points="156,398.6 158.5,400 159.8,401 161.2,401.7 163.2,400.2 161.2,397.1 158.2,397.1 156,396 	"/>
	<polygon fill="#AB8E4A" points="154.8,398.9 154.8,401.7 157.2,402.7 159.6,404.1 161.2,402.7 163.2,401 158.5,400 156,399.7 	"/>
	<polygon fill="#AB8E4A" points="153.2,401.5 151.3,402.7 152.2,404.1 154.8,405.7 157.2,405.7 159,404.1 156,402.2 154.8,401.7 	
		"/>
	<polygon fill="#7E5D37" points="104.2,407.3 106.8,404.1 106.8,401.7 105.5,401.7 103.2,399.8 101.8,401 101.8,403.6 101.8,405 	
		"/>
	<path fill="#856418" d="M101.8,393.8l1.7-3.3l0.8-2.8l0.8-2.2l0.8-1.3l-1.7-2.2l-2.5,0.8l-2.2,1.7l-2,1.8v0.8l-1.8,0.7l-1.3-1.6
		l-1.5-2.5l-1.2-1.8l-3-0.7H87c0,0-0.8-1-1.3,0s-1.5,3.8-1.5,3.8l1.3-0.2l2.3,0.2l1.7,1.2l2.3,1l0.5,3.1l-1.7,1.2l-2.8,1l-2,3.4
		l4.2-1.4l2-0.8l0.3,1.9l1.3,0.3l1.4-1.5l0.6-1.8l3-3l2.5-0.7L101.8,393.8z"/>
	<path fill="#281F0F" d="M72.7,378.4l1.8,1.6c0,0,1.7-1.4,1.8-1.6c0.2-0.2,0.7-2.5,0.7-2.5v-3.3l-2.2-0.8l-2.2,1.5L72.7,378.4
		L72.7,378.4z"/>
	<polygon fill="#3B291A" points="67.2,391 69,391 71,388.5 70.2,387.3 68,387.3 66,388.5 	"/>
	<polygon fill="#3B291A" points="73.7,391 76.3,391 78.5,389 78.5,386.3 76.1,384.7 73.7,386.3 73.7,389 	"/>
	<polygon fill="#3B291A" points="71,385.5 72.7,385.5 74.8,383 72.9,382 71,382 69.7,383.8 69.7,384.7 	"/>
	<polygon fill="#3B291A" points="62.8,387.8 64.8,387.8 66,385.5 64.4,384.7 63.5,384.7 62,386.2 	"/>
	<polygon fill="#A6A298" points="117.2,374.8 119.2,375.8 120.5,374 120.5,371.7 118.8,372.3 117.2,373 	"/>
	<polygon fill="#5B2203" points="189.9,277.8 195.7,278.2 199.4,279.5 200.8,277.6 197.9,276.4 195.4,276.1 192,275.6 	"/>
	<path fill="#5D3810" d="M203.7,272.6c0,0,4.5,0.5,4.6,0s3.5-1.6,3.5-1.6s5.9-1.2,6.5-1.2s4.9,1.2,4.9,1.2s1.8-0.3,2-1.2
		c0.2-0.8-1.2-2.6-1.2-2.6l-4-0.8c0,0-4.8,0.3-5.3,0.8s-8.5,1.8-8.5,1.8l-7.5,0.5l-7,0.7c0,0-6.5,2-7,2.5s-7.8,2.8-7.8,2.8l-7.2,3.2
		l-20,15.3v2.5l2.7-0.8l4-3.2l7.5-6l6.3-4.8l6.7-2.3l12.2-3.9C189,275.6,200.7,272.4,203.7,272.6z"/>
	<polygon fill="#836C3B" points="11.5,475.3 15.5,474.2 17.3,472.2 18.5,470.8 17.2,467.6 15.7,467.6 14.3,469.3 10.5,469.5 
		9.2,470.5 7.8,472.8 8.5,475.3 	"/>
	<polygon fill="#FBFFEE" points="11.5,468.5 11.5,466.7 13.2,465.2 14.8,464.5 15.5,465.7 15.5,466.5 13.5,468.5 	"/>
	<path fill="#A0A187" d="M18.1,459.8l-1.9,0.9l0.5,2.2c0,0,1.1,0.4,1.4,0.4s1.6-1.4,1.6-1.4v-1.4l1-1.1c0,0-0.2-1.8,0-2s0-1.8,0-1.8
		l-2.2-1.3l-0.7,0.3l-0.4,1.8l0.4,1.8L18.1,459.8z"/>
	<polygon fill="#95919A" points="12.2,456.4 13.8,455.9 13.8,453.5 11.5,452.8 10.8,455 11.5,455.8 	"/>
	<path fill="#A0A187" d="M21.8,454.4l2.4,0.6l1.1-0.6v-2.6c0,0-1.6-1.4-2.1-1.4s-2.1,0-2.1,0h-1.3l0.5,2l0.4,1.5L21.8,454.4z"/>
	<path fill="#7E7567" d="M45,439.2l1.1,0.6c0,0,1.1,0.4,1.3,0s0.6-2.1,0.6-2.1l-0.9-2.1l-1.8-0.6h-1c0,0-1.1,1.2-1.1,1.4
		s0.8,1.5,0.8,1.5L45,439.2z"/>
	<path fill="#A0A187" d="M32.4,447.2c0,0,0.6,1.3,0.9,1.3s1.3-0.6,1.5-0.7s0.6-1,0.6-1l1.1,1.6c0,0,0.5,0.8,0.7,0.8s2.2-0.7,2.2-0.7
		l-0.5-2.2l-1.8-1.1h-1.4l-1.1-1.3l-1.1-0.8l-0.6-1.1l-0.4-2.6H31h-1.2l0.3,2.9l1.2,1.1c0,0,1.4,0.9,1,1.6S32.4,447.2,32.4,447.2z"
		/>
	<polygon fill="#484040" points="29.8,452.2 31,452.5 32.2,452.2 32.6,450.9 31.2,449.3 29.1,449.1 29.4,450.8 	"/>
	<path fill="#484040" d="M25.3,455.6l0.4,0.8h1.9c0,0,1.2,0,1.3-0.8s-0.4-2.8-0.4-2.8l-0.9-1.6h-1.1l-1.1,0.4v2.8L25.3,455.6
		L25.3,455.6z"/>
	<path fill="#652411" d="M7.6,450.8c0,0,1.8,0.8,1.9,0.8s2.2,0,2.2,0s2.1-0.7,2-0.8s-1-3.3-1-3.3l-2-2.2H7.6l-0.8,0.7L5.9,447v2.6
		L7.6,450.8z"/>
	<path fill="#501C12" d="M5.9,442.9c0,0,0.6-0.6,0.9-0.8s1.5-1.1,1.8-1.3s1.6-0.7,1.8-1.2s0-2.4,0-2.4l-2.2-0.8L5.9,437l-0.7,2.6
		L5.9,442.9z"/>
	<path fill="#44332D" d="M5.9,459.4c0.1,0,1.7-0.2,2-0.5c0.2-0.3,1.2-2.5,1.2-2.5l0.8-1.4l1-2.2l-1.9-0.7c0,0-1.8,0.3-2,0.7
		s-1.4,0.2-1.4,1S5.9,459.4,5.9,459.4z"/>
	<path fill="#60594A" d="M5.6,466.1c0,0,1.8,0,2.2-0.2c0.4-0.2,1.5-1.9,1.5-2.1s-1.9-1.9-1.9-1.9H6.3l-0.8,0.4V466.1z"/>
	<path fill="#675537" d="M31.5,464.5l-1.2,2.4c0,0-0.6,3.1-0.4,3.4s0.3,3.8,1.2,3.2s4.9-4.5,4.9-4.5l1.4-1.5l-2.3-1.3l-2.5-1.8
		L31.5,464.5L31.5,464.5z"/>
	<path fill="#563B21" d="M19.3,471.4c0,0,2.2-0.4,2.5-0.7s2.4-3.6,2.4-3.6l-0.9-3.2l-1.8-3.2l-2.5,1.9l-1.8,1.8v1.6L19.3,471.4z"/>
	<path fill="#452C27" d="M49.8,463.3c0,0,3.4-0.8,3.5-1.4s2.9-5,2.9-5l3.4-1.1l1.6-1.4l-0.5-2.7l-3.5-3.2H56l-1.4,2.7l-2,4.6
		l-2.5,3.6L49.8,463.3z"/>
	<path fill="#414133" d="M37.9,438.1v-3.1l-1.8,0.7l-1.5,0.6v1.8c0,0,1.2,1.9,1.6,2.5s2.3,2.2,2.3,2.2l2.6,2.4c0,0,1.2,1.2,1,1.6
		s-1.2,2.4-1.2,2.4h-1.5c0,0-1.5,0.6-2.1,1.1s-1.2,3.4-0.8,3.4s1.4,0,1.9,0s2.6-2.1,2.6-2.1s0.8,0.8,1.2,1.2s-1,1.5,0,2.5
		s2.8,1,2.8,1s1-0.7,0.6-1.8s-1.1-2.5-1.1-2.5s-1.4,0.6-1.2,0s-0.6-2.8-0.6-2.8l0.6-0.9c0,0,2.2,2.2,2.4,1.9s1.2,0,1.2,0v-1.3
		l1.1-1.3h0.9l2.4-0.6c0,0,1.1-2.2,0.9-2.7c-0.2-0.4-1.2-0.4-1.8-0.5s-2.4,0-2.4,0h-2.8l-1.9-2.5l-0.1-1.5c0,0-0.2-0.1-1.1,0
		s-1.6,0-1.6,0L37.9,438.1z"/>
	<path fill="#484040" d="M27.1,462.9l1,1.6c0,0,0.5-0.3,1-0.8s0.7-3,0.7-3l-2.2-1.4l-1.2,1.4L27.1,462.9z"/>
	<path fill="#734B05" d="M64.2,451.7l2.4,1.2l1.2-6.3l1.2-7.5v-10.8v-6.9h-4c0,0-1.8,4.4-2.1,5.1s-1.4,4.1-1.9,5.4s-0.2,3.2-1.1,4.4
		s-2,3.1-2.2,3.2s-0.6,4.4-0.6,4.4s0.9,0.7,1.5,1.8s4,5.1,4,5.1L64.2,451.7z"/>
	<path fill="#997D50" d="M58,446.8l-0.9-0.5v1.1c0,0,0.4,1.1,0.9,1.7s4,3.8,4,3.8s-0.1,1,2.4,1.8s6.6,1.3,6.6,1.3l3.2,0.5
		c0,0,0-1.8,0-1.8s-3-1.3-3.1-1.9s-2.1-3.1-2-3.4s1.2-3.8,1.4-4.9c0.1-1.1-0.5-7.3-0.5-7.3l-1.5,5.8l-1.2,6.4l-1.6,2.3L58,446.8z"/>
	<path fill="#5B3509" d="M51.1,440l1-0.4l-0.5-3.2l-0.5-4.1l0.5-4l4.5-6.1c0,0,0.1-5.2,0-6s0.1-3.8,0.1-3.8l-0.7-1.6l-1.8-4.6
		l-0.7-2.5l-0.8,1.7l-2.4,5.1l-1.8,4.8v4.6c0,0-0.6,1.7-1.1,2s0,3.8,0,3.8l-0.2,4.4v3.8l1.7,5.5L51.1,440z"/>
	<polygon fill="#41271A" points="57.1,409.5 57.6,407.3 57.6,405.7 57.1,402.4 55,401.7 53.6,402.5 54.1,405.7 55,409.5 	"/>
	<polygon fill="#492823" points="71,439.6 72.2,421.4 73.7,411.6 72.7,405.7 68.5,406.4 64,407.9 63.1,409.5 62,423.2 60.4,427.6 
		57.6,436.1 57.1,440 66,420.4 69.1,420.4 69.7,435.6 70.2,438.9 	"/>
	<polygon fill="#543012" points="429.3,318.6 431.1,317.5 433.2,318.6 434.9,320.6 437.1,320.6 440,321.8 440,324 437.9,325.6 
		434.7,325 431.6,322.4 429.3,322.4 427.3,323 423.7,321.4 426.6,319.5 	"/>
	<polygon fill="#57350F" points="446.8,325.6 446.8,331 448.1,333 451.6,333 451.6,331.2 450.6,329.3 	"/>
	<path fill="#8B6F60" d="M182,417.9l3.5,0.8h2.4c0,0-0.1-1.5,0-1.5s-5.9-0.6-5.9-0.6l-0.9,1.1L182,417.9z"/>
	<polygon fill="#6E676D" points="202.8,409 204.2,409 205.2,408.1 204,406.5 202.8,407.8 	"/>
	<polygon fill="#503A3A" points="205.2,406.1 206.4,406.5 207.8,405.7 206.5,404.6 205.2,405.6 	"/>
	<polygon fill="#6E676D" points="207.1,409 207.1,410.2 208.8,410.2 209.5,409 208.3,409 	"/>
	<polygon fill="#6E676D" points="201.5,405.6 203.2,405.7 204.8,404.6 204.8,404.1 205.2,402.9 203.4,403.6 202.8,404.3 	"/>
	<polygon fill="#794C40" points="214.5,422.8 216.8,422.8 216.8,420.1 214.5,419.2 213.5,421 	"/>
	<polygon fill="#794C40" points="206,423.9 207.8,423.9 206.9,422 205.2,421 204.6,422.5 	"/>
	<polygon fill="#605649" points="224.6,395 226.1,396 228.8,396 228,395 225.4,393.8 	"/>
	<path fill="#96928B" d="M174.2,380.1c0,0-0.8,1.6,0,1.9s2.2,0,2.2,0s2.2-0.5,2-0.9c-0.2-0.4-2.3-2.1-2.3-2.1h-1L174.2,380.1z"/>
	<polygon fill="#866C5E" points="146.4,410.2 147.8,410.2 147.1,407.8 145.1,406.5 143.1,406.5 144.4,409 	"/>
	<polygon fill="#835839" points="150.3,403.6 148.9,406.5 150.3,407.8 152.8,408.4 155.2,408.4 156,407.8 153.2,404.6 	"/>
	<path fill="#742C00" d="M170,469.8l3.9-11.5l4.6-16l2.6-5.9l3.4,0.7l6.2,0.4c0,0,1.8-0.1,2.8-0.4s5.2,0.2,6,0.4s3.8,0.7,3.2,4.7
		s-5.2,25.8-5.2,25.8l0.5,1.7l3.5-2.5l5-27.3l-1.9-7.7c0,0-17.4-6-20.1-6.2s-3.3,3.5-8.3,14l-7.4,23.3L170,469.8z"/>
	<path fill="#743800" d="M208.3,436.9l0.4-4.8l-4.8-4.2c0,0-20.8-6.2-22.2-6.2s-3.2,1-3.2,1l-1.8,2.3l-0.9,3.2l1.2-1.8
		c0,0,2.5-2.7,2.8-2.7s2.8-0.7,3.1-0.6s21,6,21,6l2.2,2.4l0.9,3.1L208.3,436.9z"/>
	<path fill="#C5AB71" d="M170.6,478.3l11.7,1.2l4.7,1.1c0,0,1.6-2.9,2.7-3.5c1.1-0.5,2-3,3.8-3.1s6.2,0,6.2,0l2-4.2
		c0,0,1.2-3.3,1.8-5c0.7-1.7,2.8-14.6,2.8-14.6l1.2-2.3c0,0,1.9,5,1.9,7.2s-0.2,5.5,0,9.1c0.2,3.7-0.5,8-0.5,8s0.9,1.2,1.8,1
		s4.3-1.5,4.3-1.5l4.3-0.8c0,0,6.3,1.4,7.1,1.6c0.8,0.2,1.1,2.7,1.1,2.7s-2.5,2.3-3.8,3c-1.2,0.7-11,3.5-11.2,3.6s-4.9,1-7.5,1
		s-9.6,0.3-10.8,0s-16.2,0.1-16.2,0.1l-7.3-1.4l-1.3-4L170.6,478.3z"/>
	<path fill="#52190B" d="M118,458.2l3.5-24.4l2.6-2.5l4.2-4.8c0,0,4.7-1.2,4.9-1.2s2.2,0.6,2.2,2.1s-0.1,7.2,0,8.6
		c0.1,1.4,0.7,6.7,0.7,6.7l1.8-16.2l1.2-2.3c0,0,1.2,1.4,1.2,2.5s-3.1,30.6-3.1,30.6l4.5-13.8l1.1-10.6l1.7-11.1l-4.4-5.7l-3-1.4
		l-5-3.5c0,0-4.5-0.7-6,0.9c-1.5,1.6-3.4,3.5-3.8,4.3c-0.4,0.8-1.7,6.2-1.7,6.4s-0.8,9.4-0.8,10.3s-2.8,22.8-2.8,22.8L118,458.2z"/>
	<path fill="#9A8050" d="M80.8,459.2c0,0,8.2,4.1,8.2,4.2s6.7,4.3,6.9,4.2s5,2.9,5.8,1.3s1.2-4.3,1.2-4.6s-1.9-2.4-2.2-3
		c-0.3-0.6-2.4-1.7-2.4-1.7s0.1-7.1,0.1-7.3s0.6-5.5,0.6-5.5l0.3-4.7c0,0-1.6,3.8-1.8,4.3s-1,6-1.1,6.5s-1.5,4.9-1.5,4.9
		s-2.2,1.1-3,1s-3.4,0.2-4.4,0.2s-4-0.1-4-0.1L80.8,459.2z"/>
	<path fill="#B8A266" d="M116.2,467.4l0.6-0.1l12.2-1.1l4.1,0.6l4.6-1.4l2.2-6.1l0.8-6.8l1.2,9.7l-0.7,3.7l1.3,1.5l2.8,0.8v-10.1
		l1.3,10.1l1.4,2.7l1,1.3l-0.9,1.6l-1.8,1.2c0,0-6.8-0.3-7.1-0.3s-7.9-0.3-7.9-0.3l-4.8-1.3l-2.8-3.2l-6.4-2L116.2,467.4z"/>
	<path fill="#9F7029" d="M132.8,408.4l-1,0.7l2.2,2.7l2.5,1.4h4.8l1.5-2.4c0,0-3.5-3.5-3.9-3.4s-4.7,0-4.7,0L132.8,408.4z"/>
	<path fill="#59220A" d="M86,436.4c0.2-0.3,1.9-14.6,1.9-14.6l1.8-2.2c0,0,3.9,3.1,3.9,3.2s1.2,1.7,1.5,2.4s1.3,5.8,1.3,5.8
		s1.6,1.6,1.6,0.9c0-0.7,2.9-4.7,2.9-6.1c0-1.4-0.1-6.8,0-7.5s-3.9-4-4.5-5.6s-1-4.6-1.3-5.1s-4.4-2.7-4.4-2.7h-3.8
		c0,0-1.6,3.6-1.7,3.9c-0.1,0.3-0.6,1.5,0.5,2.1s1.8,4.1,1.8,5.3s0.8,2.2-0.5,2.7s-1.2,0.4-1.6,1.4c-0.4,1-0.4,3.5-0.8,5
		s-1.2,5.6-0.9,6.3S86,436.4,86,436.4z"/>
	<polygon fill="#6F442C" points="100.9,411 100.4,412.4 100.9,414.8 102.5,414.8 102.5,412.4 	"/>
	<polygon fill="#341614" points="84.7,403.1 86.5,400.9 88.6,400.2 91.7,400.6 94.4,402.7 101.5,407.3 101.5,403.8 95.1,400.2 
		89.2,397.4 84.7,398.4 84.2,401.7 	"/>
	<polygon fill="#341601" points="211.6,490.8 212.7,488.7 212.1,487.6 208.8,487.9 206.5,487.5 206.2,485.8 210,485 215.5,483.6 
		223.5,482.6 229.4,483.1 229.4,487.5 223.6,490.8 217.8,495.8 213.5,495.1 206.2,495.1 202.3,495.1 200,494.1 196.2,492.4 
		195.3,493.4 194.7,495.1 192.3,494.1 192.3,491.7 190.3,491.7 190.3,489.5 192.3,489.5 194,490.8 199.3,491.7 204.6,490.8 
		207.8,491.7 	"/>
	<polygon fill="#622D10" points="197.2,323.1 199.4,323.1 202.2,321.3 199.7,318.4 197.2,319.2 195.4,321.5 	"/>
	<path fill="#382016" d="M154.5,475h-2c0,0-1-1-1.5-1s-2,3.2-1.9,3.1c0.1-0.1,2.7,3.9,2.7,3.9l9.2,6.9l-0.7,2.8l-0.7,3.4
		c0,0,0.5,1.3,1.3,1.7s4.8,0,4.8,0v-3.3l3.4-0.8c0,0,1.4-2.5,0.9-2.5s-3.8-4.2-3.8-4.2l-3.3-3.8l-1.3-4l0.5-3.1l-1.5-4.7
		c0,0-1.2-2-1.7-2s-3.7,0-3.7,0l-1.5,2l2.5,2.4L156,475H154.5z"/>
	<path fill="#524133" d="M122.5,482.5c0,0-11.7-11.9-11.7-17v-2.6l-1.5-3.3h-2.2h-4.3l0.8,2l2.2,1.3l1.3,3.8
		C107.2,466.7,113.7,480,122.5,482.5z"/>
	<path fill="#130E0C" d="M51.4,464.5h2.2l8.2-2.6l7.3-0.1l5.1-0.6l3.8,3.2c0,0,1.2,3.7,1.5,4.6c0.3,0.9,0.3,4.1,3,4.6
		s8.3,1.6,8.3,1.6h4.8l4.8,2.8l9.9,6.3v2.9c0,0-1,0.2,1.2,0.8c2.2,0.7,5.3,1.5,5.8,1s2,0.1,2,0.1s0.5,3,1.3,3s4.2,0,4.2,0l2.5,1.7
		c0,0,2.5,1.4,2.5,1.9s3.7,2.7,4.3,2.7c0.7,0,4.7,0,4.7,0l4,2.5c0,0-0.5,1.5,1.5,2.8s6.5,2.8,8.5,2.8s2,2.6,2,2.6l4.8,5.3
		c0,0,4.5,1.1,5.2,1.1c0.7,0,8.3,0,8.3,0l3.8,2.5l6,2.2l5.7,1.2l4.9-1.2l1.9-5.8l-6.5-1.6c0,0-43.8-11.4-62.5-24
		c0,0-43.6-24.9-49.7-31c0,0-10-1.1-14.8-3.6l-4.9,1.9l-3.5,3L51.4,464.5z"/>
	<path fill="#8F6F1E" d="M182,506.3l-2.2-2.3l-4.7-2.3l-1.2-2.6l6.5-0.9l4.7,2.3l5.8,2.1v3l6.2,2c0,0-1.7,2-1.8,1.8s-5.1,0-5.1,0
		L182,506.3z"/>
	<path fill="#60410A" d="M194.7,499.1h-3.5c0,0-16.2-4.8-17.2-5S193.3,497.5,194.7,499.1z"/>
	<path fill="#78685A" d="M166.7,496.6l2.2,3.9c0,0-0.6,3.5,1.4,3.3s4.4,0,4.4,0l6.3,1.4c0,0,2.6,4,4.7,4.2s7.5,1.9,8,1.6
		s5.2-0.5,5.2-0.5l-3.4,4.3l-47.8-15.7l2.3-0.9l-0.9-2.3l-4.7-0.9h-1l-0.8-1.7c0,0,1-1.8,1.8-1.7s3.5,0,3.5,0s-0.8-3.9-1.3-3.5
		s-6.2,0-6.2,0s-3-1-3.5-1.6s-4.2-0.9-4.2-0.9s0.9,2.4,1.4,2.5c0.5,0,2.8,1.1,3.2,1.8c0.3,0.7,3,3.4,3,3.4l2.7,3.2l-0.1,1.1
		c0,0-15.2-7.8-15.7-8.1s-1.8-3-1.8-3l-2.7-2.1l0.9-7.3h2.4l2.3,2.3l4.5,2.2l3.9-1.3l-1-2.1l-1.2-1.1l1.5-1.4h1.5l2.7,1.4l1.7,2.3
		l0.2,2.2c0,0-2.2,1.2-2.7,0.8c-0.5-0.3-2.8,0.6-2.8,0.6l4.3,1.4l3.7-0.9c0,0,1.3-0.3,1-1.9c-0.3-1.6-1.8-3.4-1.8-3.4l3.5,1.2
		l1.3,2.2l-1.5,3.4h2.2l0.9-3.4l-0.9-2.2l2.7,1.6l1.4,4c0,0-0.7,2.3-1.5,2.5c-0.8,0.2-2.6,0.6-2.6,0.6l1.8,2.6c0,0,1,0.8,1.5,0.9
		s3.2,0,3.2,0h3.5l1.7,0.8l1.8,3.5l-5.3,1.6l-3.7,0.7h2.8l5,0.9l3.8,2.3l0.5-2.3L166.7,496.6z"/>
	<path fill="#8B6B43" d="M178.4,486.8h8.1c0,0,11.6-0.6,12.3-0.6c0.7,0,8.2-0.5,8.2-0.5l2.8-2l0.1-0.5l-31.1,1.3l-4-0.8
		c0,0-2.7-2.1-3.2-1.9s-4.1-4-4.1-4l-0.8-1.7l-0.5-1l-1.3,0.3l-1.9-4.2l-1.6,4.6l0.4,3.8c0,0,0.9-0.2,0.9-0.5s1.5-3.2,1.5-3.2
		l4.1,3.6l2.7,3.2l1.8,2.7l2.8,0.9L178.4,486.8z"/>
	<path fill="#785718" d="M192.7,504.5l2.4,0.4l0.9-1.1c0,0-1.4-1.4-1.7-1.2s-2.6-1.5-2.8-1.4s-1.2,1.1-1.2,1.1l1.5,2.5L192.7,504.5z
		"/>
	<path fill="#70360C" d="M165.3,469.8l1.2-6.4l-0.6-4.4l-1.3,3.4c0,0-2.1,1.2-2.8,1.5c-0.7,0.3-0.4,1.3-0.7,1.7s-0.5,3-0.5,3
		l2.2,1.3l1.8,1.3L165.3,469.8z"/>
	<path fill="#765219" d="M198.3,499.8h5.2h2l-4.4-1.6l0.8-0.9l3.6,0.6h3.5l-1.2,1.2l-0.1,0.7h2.2l-1.4,2l-1.5,0.4l-1.5-0.9
		c0,0-1.4,0.5-1.4,0.5s-2.4-0.5-2.4-0.5L198.3,499.8z"/>
	<polygon fill="#88691D" points="200.6,502.2 199.6,503.8 201.3,504.9 203.2,503.8 203.2,502.6 	"/>
	<path fill="#565253" d="M110.5,421.8c0,0,4-26,6.2-30.8S110.5,421.8,110.5,421.8z"/>
	<path fill="#271D18" d="M165,452.1c0,0,4.8-20,6.5-21.5l2.4-5.6v-4.6l0-3.9l-2,2.1l-2,7.4C170,426,165.2,450.2,165,452.1z"/>
	<path fill="#372716" d="M166,370.5h-2.8c0,0-1.3-2.2-2-3s2.4-3.8,2.4-3.8l-0.4-3.5l-2.1-5.4l4.9-0.7l4-1l-4.5,4.2v6.2l3,3h3l9,5.8
		l33,4.2l-31.8-0.9C181.8,375.8,167.5,366.5,166,370.5z"/>
	<polygon fill="#3B1902" points="225.2,265.3 230.5,265.3 241,263.8 227.5,261.2 217.2,265.3 	"/>
	<path fill="#3C150C" d="M421.1,300.2h10.8c0,0,6.8,1.2,8.2,0s10.2-3.8,11.6-5.3s8.5-2.8,8.5-2.8h8.2l5.8,6l8.2,2.7
		c0,0,0.9,0.7,3.3,0s6.4-5.9,6.4-5.9s3.7,0.2,5.5,0s6.7,0,6.7,0s8.7,2.2,12.4,3.2s4.5,2.7,4.5,2.7l18.6,0.3l22-0.3l9.8,4.3
		c0,0,0.2-0.7,12.2,0s14.7,0.3,16.3,0s-6-2.7-6-2.7s-49.7-1.3-52-3.6c-2.3-2.4-11.2-4-13.1-3.8c-1.9,0.2-6.5,2.2-13-2.8
		s-3.5-5.5,0-5.2c3.5,0.2,17.8,0,19.5,0c1.7,0,6.4-1.9,9.7,0s22.2,3.6,24.8,3.2s13.2-0.3,13.2-0.3s7,5.4,9.7,5.2s14.3,3.5,14.3,3.5
		l-1.4-35.7c0,0-3.9,9.6-4.2,10s-3.3,6.7-4.3,6.7s-9.3,0-14,0s-14.1,0.3-17.4,0.3s-10.9-2.3-13.8-2.7c-2.8-0.3-5.5-1-9.2-0.3
		s11,1.7-10.7,1.7s-18.3,0-21.7,0s-14.8-0.7-17.2-0.3s-5.4,0.3-10.8,0.3c-5.3,0-18.7-2.3-18.7-2.3s-4.8-0.7-6.7,0
		c-1.9,0.7-7.3,0.7-10.9,0.7s-5.6,0.3-8.1-0.3c-2.5-0.7-14.1-2.3-12.7-0.3s10.2,8,10.2,8s2.4,1.8,0,2.7s1.3,2.1-10.2,0
		c-11.5-2.1-5.2-1.8-11.5-2.1c-6.3-0.3-9.8,2.1-9.8,2.1h-3.7L421.1,300.2z"/>
	<path fill="#411B0D" d="M489,346.9l4.1-5.2l10.2-3.7c0,0,2-3,0-3.7s-4.8-5-4.8-5l5.1-2c0,0,3.7,1.6,6.4,2c2.7,0.4,6.8,1.4,6.8,1.4
		l10.6-1.4h8.3l9-3.7l11,2l9.9,1.6c0,0,9.4-1,10.4,0s9.9,3.7,9.9,3.7s4.8,4.7,5.8,5s9.3,4.1,10,4.9s3.9,4,3.9,4v-31.5
		c0,0-4.6,5.8-5.6,6.2s-5.3,5.7-8.7,4.1c-3.3-1.6-4-3.1-8.3-3.2s-8.4,0.4-13.2-0.8c-4.8-1.2-14.1,0-14.1,0s0.7-0.6-3.8-1.2
		c-4.5-0.7-4.5-0.7-4.5-0.7l-9.1-0.3l-6.2,3.1h-3.1c0,0-2.9-0.7-5.9-3.4s-0.7-2.7-4.8-1.5c-4.2,1.2-4.2,1.2-4.2,1.2l-5.9-3.3
		l-9.6,2.2c0,0-4-0.5-5.4,0s-1.1-0.8-4.1,0s-6.7,0-6.7,0s-5.2-2.5-7-2.2c-1.7,0.3-12.7,0.9-13.7,0s1.2-1.4-1.5,0s-6.5,0.7-6.5,2.2
		s-0.8,11.8-0.8,11.8l-1.2,3.7l8.5,3.3c0,0,4.7-3.1,5.1-3.3s3.6-3.4,3.6-3.7s-0.3-5.1-0.3-5.1s3.2-0.5,4.4,0s3.5,5.6,1.3,6.5
		s-2.5,2.4-3,3c-0.5,0.7-3.3,1.7-3.3,1.7l-6.5,1l2.7,3.5c0,0,9.1,6.4,8.9,7s4.7,9.5,5.7,9.3s5.9,4.2,7.1,3.9s-0.8-0.2,3.9,0
		s13.2,2.4,13.2,2.4l9.7-2.4h5.3c0,0-0.7-2.1,4-1c4.7,1.1,5,1.9,8.5,2.4s3.2,2.1,8,1.9s26,0,26,0s6.8,0.4,9,0s5.2-0.1,5.7,0.2
		s7,3.1,7,3.1s4.6,0.1,8,1s9.7,1.5,10.2,1.5s1.6,0.8,1.6,0.8v-14.7l-3.7,4.3c0,0-3.5,2.3-6.8,1.8s-4.5-0.6-8.3-1s-7.2-0.7-9.2-0.7
		s-6.8-1.5-11-1.5s-2,0-6.7,0.5s-0.5,1.2-6.5-0.2c-6-1.3,0.2-2.4-8.3-2.5c-8.5,0-12-1.4-14.8-1.7c-2.8-0.3-3-0.5-7.2-0.5
		s-9.2-0.5-9.7-0.7S510,353,510,353l-8.6-3.5c0,0-9.5,0-10.2,0C490.5,349.5,489,346.9,489,346.9z"/>
</g>
</svg>
